<mxfile host="app.diagrams.net" modified="2024-07-25T19:27:25.760Z" agent="Mozilla/5.0 (Windows NT 10.0; Win64; x64) AppleWebKit/537.36 (KHTML, like Gecko) Chrome/126.0.0.0 Safari/537.36" etag="nE0Z8LmnwjHsiMNHctg_" version="24.6.4" type="device">
  <diagram name="Page-1" id="6HSG5IIUxdBryaQsct95">
    <mxGraphModel dx="1963" dy="2388" grid="1" gridSize="1" guides="1" tooltips="1" connect="1" arrows="1" fold="1" page="1" pageScale="1" pageWidth="1169" pageHeight="827" math="0" shadow="0">
      <root>
        <mxCell id="0" />
        <mxCell id="1" parent="0" />
        <UserObject label="" plantUmlData="{&#xa;  &quot;data&quot;: &quot;@startuml School Management System\n\nskinparam Linetype ortho\nskinparam classAttributeIconSize 0\nhide circle\n\nclass User {\n  # userType\n  # userID\n  # username\n  # password\n  # email\n  # firstName\n  # lastName\n  # fullName\n  # dateOfBirth\n  # fingerprint\n  # userReport\n  # userLog\n  + viewUser()\n  + createUser()\n  + updateUser()\n  + deleteUser()\n  + viewUserReport()\n  + generateUserReport()\n  + viewUserLog()\n  + editUserLog()\n  + enterAttendance()\n  + informUser()\n  + login()\n  + logout()\n}\n\nclass Student {\n  - studentID\n  - studentSection\n  - studentgrade\n  - studentClass\n  - studentReport\n  + viewStudent()\n  + createStudent()\n  + updateStudent()\n  + deleteStudent()\n  + viewStudentReport()\n  + generateStudentReport()\n  + informStudent()\n}\n\nclass Teacher {\n  # gradeValue\n  # teacherID\n  # teacherSubjects\n  # teacherClass\n  # teacherSection\n  # teacherReport\n  + viewTeacher()\n  + createTeacher()\n  + updateTeacher()\n  + deleteTeacher()\n  + viewTeacherReport()\n  + generateTeacherReport()\n  + informTeacher()\n}\n\nclass SectionalHead {\n  - section\n  - sectionalHeadReport\n  + viewSectionalHead()\n  + createSectionalHead()\n  + updateSectionalHead()\n  + deleteSectionalHead()\n  + viewSectionalHeadReport()\n  + generateSectionalHeadReport()\n  + informSectionalHead()\n}\n\nclass VicePrincipal {\n  # vicePrincipalType\n  # vicePrincipalReport\n  # informVicePrincipal()\n  # manageSchoolBudget()\n}\n\nclass Principal {\n  # principalType\n  # principalReport\n  # informPrincipal()\n}\n\nclass Admin {\n  - adminID\n  - adminType\n  - adminReport\n  - adminLog\n  - viewSystemDatabase()\n  - editSystemDatabase()\n  - viewUsers()\n  - editUsers()\n  - modifyUserPermissions()\n  - viewSystemMonitor()\n  - systemBackups()\n  - viewBackups()\n  - restoreBackups()\n  - generateSystemReports()\n}\n\nclass Section {\n  - section\n  - sectionalHead\n  - sectionReport\n  - sectionLog\n  - sectionStudents\n  - sectionTeachers\n  - sectionSubjects\n  + viewSection()\n  + createSection()\n  + updateSection()\n  + deleteSection()\n  + informSection()\n  + generateSectionReport()\n  + viewSectionReport()\n  + viewSectionLog()\n  + editSectionLog()\n}\n\nclass Class {\n  - class\n  - classTeacher\n  - classMonitor\n  - classStudents\n  - classReport\n  - classLog\n  - timeTable\n  + viewStudents()\n  + addStudents()\n  + removeStudents()\n  + addClassMonitor()\n  + removeClassMonitor()\n  + addClassTeacher()\n  + removeClassTeacher()\n  + createTimeTable()\n  + updateTimeTable()\n  + deleteTimeTable()\n  + viewClass()\n  + createClass()\n  + updateClass()\n  + deleteClass()\n  + generateClassReport()\n  + viewClassReport()\n  + viewClassLog()\n  + editClassLog()\n}\n\nclass Payment {\n  - paymentId\n  - paymentType\n  - paymentUser\n  - amount\n  - description\n  - paymentDate\n  - paymentMethod\n  - currentStatus\n  + viewpayment()\n  + createPayment()\n  + updatePayment()\n  + deletePayment()\n}\n\nclass SchoolBudget {\n  - income\n  - expense\n  - donations\n  - otherPayments\n  + viewBudget()\n  + createBudget()\n  + updateBudget()\n}\n\nclass Exam {\n  - id\n  - name\n  - type\n  - description\n  - date\n  - duration\n  - medium\n  + viewExams()\n  + createExam()\n  + updateExam()\n  + deleteExam()\n}\n\nclass Result {\n  - id\n  - studentName\n  - marks\n  - grade\n  - updateDate\n  + viewResult()\n  + createResult()\n  + updateResult()\n  + deleteResult()\n  + applyForRecorrection()\n}\n\nclass Assessment {\n  - id\n  - title\n  - description\n  - attachedFiles\n  - dueDate\n  - medium\n  + viewAssessment()\n  + creatAssessment()\n  + updateAssessment()\n  + deleteAssessment()\n  + gradeAssessment()\n  + submitSubmission()\n  + manageSubmission()\n}\n\nclass Submission {\n  - id\n  - content\n  - attachedFiles\n  - submissionDate\n  - submissionTime\n  - marks\n  - grade\n  + viewSubmission()\n  + createSubmission()\n  + updateSubmission()\n  + deleteSubmission()\n  + gradeSubmission()\n  + sortSubmission()\n}\n\nclass Subject {\n  - subjectName\n  - subjectContent\n  - creditPoints\n  - hours\n  - subjectContent\n  + addContent()\n  + removeContent()\n  + viewSubject()\n  + createSubject()\n  + updateSubject()\n  + deleteSubject()\n}\n\nUser &lt;|-- Student\nUser &lt;|-- Teacher\nTeacher &lt;|-- SectionalHead\nSectionalHead &lt;|-- VicePrincipal\nVicePrincipal &lt;|-- Principal\nPrincipal &lt;|-- Admin\n\nSection \&quot;1\&quot; *-- \&quot;1..*\&quot; Teacher : Has\nSection \&quot;1\&quot; *-- \&quot;1..*\&quot; Class : Has\nSection \&quot;1\&quot; *-- \&quot;1..*\&quot; Subject : Has\nSection \&quot;1\&quot; o-- \&quot;1..*\&quot; Exam : Has\nClass \&quot;1\&quot; *-- \&quot;1..*\&quot; Student : Has\nAssessment \&quot;1\&quot; o-- \&quot;0..*\&quot; Submission : Has\nAssessment \&quot;1\&quot; *-- \&quot;1\&quot; Subject\nExam \&quot;1\&quot; o-- \&quot;0..*\&quot; Result : Has\nExam \&quot;1\&quot; *-- \&quot;1\&quot; Subject\nResult \&quot;1\&quot; *-- \&quot;1\&quot; Subject\nSchoolBudget -- Payment\nAdmin \&quot;1\&quot; -- \&quot;1..*\&quot; User : Manage\nPrincipal \&quot;1\&quot; -- \&quot;1..*\&quot; VicePrincipal : Manage\nVicePrincipal \&quot;1\&quot; -- \&quot;1..*\&quot; SchoolBudget : Manage\nVicePrincipal \&quot;1\&quot; -- \&quot;1..*\&quot; SectionalHead : Manage\nSectionalHead \&quot;1\&quot; -- \&quot;1\&quot; Section : Manage\nSectionalHead \&quot;1\&quot; -- \&quot;1..*\&quot; Teacher : Manage\nTeacher \&quot;1\&quot; -- \&quot;0..1\&quot; Class : Manage\nTeacher \&quot;1\&quot; -- \&quot;1..*\&quot; Subject : Manage\nTeacher \&quot;1\&quot; -- \&quot;1..*\&quot; Assessment : Manage\nTeacher \&quot;1\&quot; -- \&quot;1..*\&quot; Submission : Manage\nTeacher \&quot;1\&quot; -- \&quot;1..*\&quot; Exam : Manage\nTeacher \&quot;1\&quot; -- \&quot;1..*\&quot; Student : Manage\nStudent \&quot;1\&quot; -- \&quot;0..*\&quot; Payment : Make\nStudent \&quot;1\&quot; -- \&quot;1..*\&quot; Subject : Access\nStudent \&quot;1\&quot; -- \&quot;1..*\&quot; Exam : Apply\nStudent \&quot;1\&quot; o-- \&quot;0..*\&quot; Result : Has\nStudent \&quot;1\&quot; -- \&quot;0..*\&quot; Assessment : Submit\n\n@enduml&quot;,&#xa;  &quot;format&quot;: &quot;svg&quot;&#xa;}" id="IGqRPyEcxotV4_BSwwno-1">
          <mxCell style="shape=image;noLabel=1;verticalAlign=top;aspect=fixed;imageAspect=0;image=data:image/svg+xml,PD94bWwgdmVyc2lvbj0iMS4wIiBlbmNvZGluZz0idXMtYXNjaWkiIHN0YW5kYWxvbmU9Im5vIj8+PHN2ZyB4bWxucz0iaHR0cDovL3d3dy53My5vcmcvMjAwMC9zdmciIHhtbG5zOnhsaW5rPSJodHRwOi8vd3d3LnczLm9yZy8xOTk5L3hsaW5rIiBjb250ZW50U3R5bGVUeXBlPSJ0ZXh0L2NzcyIgaGVpZ2h0PSIyOTMycHgiIHByZXNlcnZlQXNwZWN0UmF0aW89Im5vbmUiIHN0eWxlPSJ3aWR0aDoxMDcycHg7aGVpZ2h0OjI5MzJweDtiYWNrZ3JvdW5kOiNGRkZGRkY7IiB2ZXJzaW9uPSIxLjEiIHZpZXdCb3g9IjAgMCAxMDcyIDI5MzIiIHdpZHRoPSIxMDcycHgiIHpvb21BbmRQYW49Im1hZ25pZnkiPjxkZWZzLz48Zz48IS0tY2xhc3MgVXNlci0tPjxnIGlkPSJlbGVtX1VzZXIiPjxyZWN0IGNvZGVMaW5lPSI1IiBmaWxsPSIjRjFGMUYxIiBoZWlnaHQ9IjQwMC42MDk0IiBpZD0iVXNlciIgcng9IjIuNSIgcnk9IjIuNSIgc3R5bGU9InN0cm9rZTojMTgxODE4O3N0cm9rZS13aWR0aDowLjU7IiB3aWR0aD0iMTYxIiB4PSI1MDYuNSIgeT0iNyIvPjx0ZXh0IGZpbGw9IiMwMDAwMDAiIGZvbnQtZmFtaWx5PSJzYW5zLXNlcmlmIiBmb250LXNpemU9IjE0IiBsZW5ndGhBZGp1c3Q9InNwYWNpbmciIHRleHRMZW5ndGg9IjI4IiB4PSI1NzMiIHk9IjI1LjIzNDQiPlVzZXI8L3RleHQ+PGxpbmUgc3R5bGU9InN0cm9rZTojMTgxODE4O3N0cm9rZS13aWR0aDowLjU7IiB4MT0iNTA3LjUiIHgyPSI2NjYuNSIgeTE9IjMxLjk4NDQiIHkyPSIzMS45ODQ0Ii8+PHRleHQgZmlsbD0iIzAwMDAwMCIgZm9udC1mYW1pbHk9InNhbnMtc2VyaWYiIGZvbnQtc2l6ZT0iMTQiIGxlbmd0aEFkanVzdD0ic3BhY2luZyIgdGV4dExlbmd0aD0iNjMiIHg9IjUxMi41IiB5PSI0OS4yMTg4Ij4jdXNlclR5cGU8L3RleHQ+PHRleHQgZmlsbD0iIzAwMDAwMCIgZm9udC1mYW1pbHk9InNhbnMtc2VyaWYiIGZvbnQtc2l6ZT0iMTQiIGxlbmd0aEFkanVzdD0ic3BhY2luZyIgdGV4dExlbmd0aD0iNDkiIHg9IjUxMi41IiB5PSI2NC4yMDMxIj4jdXNlcklEPC90ZXh0Pjx0ZXh0IGZpbGw9IiMwMDAwMDAiIGZvbnQtZmFtaWx5PSJzYW5zLXNlcmlmIiBmb250LXNpemU9IjE0IiBsZW5ndGhBZGp1c3Q9InNwYWNpbmciIHRleHRMZW5ndGg9IjY0IiB4PSI1MTIuNSIgeT0iNzkuMTg3NSI+I3VzZXJuYW1lPC90ZXh0Pjx0ZXh0IGZpbGw9IiMwMDAwMDAiIGZvbnQtZmFtaWx5PSJzYW5zLXNlcmlmIiBmb250LXNpemU9IjE0IiBsZW5ndGhBZGp1c3Q9InNwYWNpbmciIHRleHRMZW5ndGg9IjY0IiB4PSI1MTIuNSIgeT0iOTQuMTcxOSI+I3Bhc3N3b3JkPC90ZXh0Pjx0ZXh0IGZpbGw9IiMwMDAwMDAiIGZvbnQtZmFtaWx5PSJzYW5zLXNlcmlmIiBmb250LXNpemU9IjE0IiBsZW5ndGhBZGp1c3Q9InNwYWNpbmciIHRleHRMZW5ndGg9IjQzIiB4PSI1MTIuNSIgeT0iMTA5LjE1NjMiPiNlbWFpbDwvdGV4dD48dGV4dCBmaWxsPSIjMDAwMDAwIiBmb250LWZhbWlseT0ic2Fucy1zZXJpZiIgZm9udC1zaXplPSIxNCIgbGVuZ3RoQWRqdXN0PSJzcGFjaW5nIiB0ZXh0TGVuZ3RoPSI3MSIgeD0iNTEyLjUiIHk9IjEyNC4xNDA2Ij4jZmlyc3ROYW1lPC90ZXh0Pjx0ZXh0IGZpbGw9IiMwMDAwMDAiIGZvbnQtZmFtaWx5PSJzYW5zLXNlcmlmIiBmb250LXNpemU9IjE0IiBsZW5ndGhBZGp1c3Q9InNwYWNpbmciIHRleHRMZW5ndGg9IjY0IiB4PSI1MTIuNSIgeT0iMTM5LjEyNSI+I2xhc3ROYW1lPC90ZXh0Pjx0ZXh0IGZpbGw9IiMwMDAwMDAiIGZvbnQtZmFtaWx5PSJzYW5zLXNlcmlmIiBmb250LXNpemU9IjE0IiBsZW5ndGhBZGp1c3Q9InNwYWNpbmciIHRleHRMZW5ndGg9IjY0IiB4PSI1MTIuNSIgeT0iMTU0LjEwOTQiPiNmdWxsTmFtZTwvdGV4dD48dGV4dCBmaWxsPSIjMDAwMDAwIiBmb250LWZhbWlseT0ic2Fucy1zZXJpZiIgZm9udC1zaXplPSIxNCIgbGVuZ3RoQWRqdXN0PSJzcGFjaW5nIiB0ZXh0TGVuZ3RoPSI4NCIgeD0iNTEyLjUiIHk9IjE2OS4wOTM4Ij4jZGF0ZU9mQmlydGg8L3RleHQ+PHRleHQgZmlsbD0iIzAwMDAwMCIgZm9udC1mYW1pbHk9InNhbnMtc2VyaWYiIGZvbnQtc2l6ZT0iMTQiIGxlbmd0aEFkanVzdD0ic3BhY2luZyIgdGV4dExlbmd0aD0iODQiIHg9IjUxMi41IiB5PSIxODQuMDc4MSI+I2ZpbmdlcnByaW50PC90ZXh0Pjx0ZXh0IGZpbGw9IiMwMDAwMDAiIGZvbnQtZmFtaWx5PSJzYW5zLXNlcmlmIiBmb250LXNpemU9IjE0IiBsZW5ndGhBZGp1c3Q9InNwYWNpbmciIHRleHRMZW5ndGg9Ijc3IiB4PSI1MTIuNSIgeT0iMTk5LjA2MjUiPiN1c2VyUmVwb3J0PC90ZXh0Pjx0ZXh0IGZpbGw9IiMwMDAwMDAiIGZvbnQtZmFtaWx5PSJzYW5zLXNlcmlmIiBmb250LXNpemU9IjE0IiBsZW5ndGhBZGp1c3Q9InNwYWNpbmciIHRleHRMZW5ndGg9IjU2IiB4PSI1MTIuNSIgeT0iMjE0LjA0NjkiPiN1c2VyTG9nPC90ZXh0PjxsaW5lIHN0eWxlPSJzdHJva2U6IzE4MTgxODtzdHJva2Utd2lkdGg6MC41OyIgeDE9IjUwNy41IiB4Mj0iNjY2LjUiIHkxPSIyMTkuNzk2OSIgeTI9IjIxOS43OTY5Ii8+PHRleHQgZmlsbD0iIzAwMDAwMCIgZm9udC1mYW1pbHk9InNhbnMtc2VyaWYiIGZvbnQtc2l6ZT0iMTQiIGxlbmd0aEFkanVzdD0ic3BhY2luZyIgdGV4dExlbmd0aD0iODAiIHg9IjUxMi41IiB5PSIyMzcuMDMxMyI+K3ZpZXdVc2VyKCk8L3RleHQ+PHRleHQgZmlsbD0iIzAwMDAwMCIgZm9udC1mYW1pbHk9InNhbnMtc2VyaWYiIGZvbnQtc2l6ZT0iMTQiIGxlbmd0aEFkanVzdD0ic3BhY2luZyIgdGV4dExlbmd0aD0iOTMiIHg9IjUxMi41IiB5PSIyNTIuMDE1NiI+K2NyZWF0ZVVzZXIoKTwvdGV4dD48dGV4dCBmaWxsPSIjMDAwMDAwIiBmb250LWZhbWlseT0ic2Fucy1zZXJpZiIgZm9udC1zaXplPSIxNCIgbGVuZ3RoQWRqdXN0PSJzcGFjaW5nIiB0ZXh0TGVuZ3RoPSI5MyIgeD0iNTEyLjUiIHk9IjI2NyI+K3VwZGF0ZVVzZXIoKTwvdGV4dD48dGV4dCBmaWxsPSIjMDAwMDAwIiBmb250LWZhbWlseT0ic2Fucy1zZXJpZiIgZm9udC1zaXplPSIxNCIgbGVuZ3RoQWRqdXN0PSJzcGFjaW5nIiB0ZXh0TGVuZ3RoPSI5MyIgeD0iNTEyLjUiIHk9IjI4MS45ODQ0Ij4rZGVsZXRlVXNlcigpPC90ZXh0Pjx0ZXh0IGZpbGw9IiMwMDAwMDAiIGZvbnQtZmFtaWx5PSJzYW5zLXNlcmlmIiBmb250LXNpemU9IjE0IiBsZW5ndGhBZGp1c3Q9InNwYWNpbmciIHRleHRMZW5ndGg9IjEyMiIgeD0iNTEyLjUiIHk9IjI5Ni45Njg4Ij4rdmlld1VzZXJSZXBvcnQoKTwvdGV4dD48dGV4dCBmaWxsPSIjMDAwMDAwIiBmb250LWZhbWlseT0ic2Fucy1zZXJpZiIgZm9udC1zaXplPSIxNCIgbGVuZ3RoQWRqdXN0PSJzcGFjaW5nIiB0ZXh0TGVuZ3RoPSIxNDkiIHg9IjUxMi41IiB5PSIzMTEuOTUzMSI+K2dlbmVyYXRlVXNlclJlcG9ydCgpPC90ZXh0Pjx0ZXh0IGZpbGw9IiMwMDAwMDAiIGZvbnQtZmFtaWx5PSJzYW5zLXNlcmlmIiBmb250LXNpemU9IjE0IiBsZW5ndGhBZGp1c3Q9InNwYWNpbmciIHRleHRMZW5ndGg9IjEwMSIgeD0iNTEyLjUiIHk9IjMyNi45Mzc1Ij4rdmlld1VzZXJMb2coKTwvdGV4dD48dGV4dCBmaWxsPSIjMDAwMDAwIiBmb250LWZhbWlseT0ic2Fucy1zZXJpZiIgZm9udC1zaXplPSIxNCIgbGVuZ3RoQWRqdXN0PSJzcGFjaW5nIiB0ZXh0TGVuZ3RoPSIxMDAiIHg9IjUxMi41IiB5PSIzNDEuOTIxOSI+K2VkaXRVc2VyTG9nKCk8L3RleHQ+PHRleHQgZmlsbD0iIzAwMDAwMCIgZm9udC1mYW1pbHk9InNhbnMtc2VyaWYiIGZvbnQtc2l6ZT0iMTQiIGxlbmd0aEFkanVzdD0ic3BhY2luZyIgdGV4dExlbmd0aD0iMTI4IiB4PSI1MTIuNSIgeT0iMzU2LjkwNjMiPitlbnRlckF0dGVuZGFuY2UoKTwvdGV4dD48dGV4dCBmaWxsPSIjMDAwMDAwIiBmb250LWZhbWlseT0ic2Fucy1zZXJpZiIgZm9udC1zaXplPSIxNCIgbGVuZ3RoQWRqdXN0PSJzcGFjaW5nIiB0ZXh0TGVuZ3RoPSI5NCIgeD0iNTEyLjUiIHk9IjM3MS44OTA2Ij4raW5mb3JtVXNlcigpPC90ZXh0Pjx0ZXh0IGZpbGw9IiMwMDAwMDAiIGZvbnQtZmFtaWx5PSJzYW5zLXNlcmlmIiBmb250LXNpemU9IjE0IiBsZW5ndGhBZGp1c3Q9InNwYWNpbmciIHRleHRMZW5ndGg9IjU4IiB4PSI1MTIuNSIgeT0iMzg2Ljg3NSI+K2xvZ2luKCk8L3RleHQ+PHRleHQgZmlsbD0iIzAwMDAwMCIgZm9udC1mYW1pbHk9InNhbnMtc2VyaWYiIGZvbnQtc2l6ZT0iMTQiIGxlbmd0aEFkanVzdD0ic3BhY2luZyIgdGV4dExlbmd0aD0iNjUiIHg9IjUxMi41IiB5PSI0MDEuODU5NCI+K2xvZ291dCgpPC90ZXh0PjwvZz48IS0tY2xhc3MgU3R1ZGVudC0tPjxnIGlkPSJlbGVtX1N0dWRlbnQiPjxyZWN0IGNvZGVMaW5lPSIzMiIgZmlsbD0iI0YxRjFGMSIgaGVpZ2h0PSIyMjAuNzk2OSIgaWQ9IlN0dWRlbnQiIHJ4PSIyLjUiIHJ5PSIyLjUiIHN0eWxlPSJzdHJva2U6IzE4MTgxODtzdHJva2Utd2lkdGg6MC41OyIgd2lkdGg9IjE4MiIgeD0iNjAiIHk9IjE4MzIiLz48dGV4dCBmaWxsPSIjMDAwMDAwIiBmb250LWZhbWlseT0ic2Fucy1zZXJpZiIgZm9udC1zaXplPSIxNCIgbGVuZ3RoQWRqdXN0PSJzcGFjaW5nIiB0ZXh0TGVuZ3RoPSI0OSIgeD0iMTI2LjUiIHk9IjE4NTAuMjM0NCI+U3R1ZGVudDwvdGV4dD48bGluZSBzdHlsZT0ic3Ryb2tlOiMxODE4MTg7c3Ryb2tlLXdpZHRoOjAuNTsiIHgxPSI2MSIgeDI9IjI0MSIgeTE9IjE4NTYuOTg0NCIgeTI9IjE4NTYuOTg0NCIvPjx0ZXh0IGZpbGw9IiMwMDAwMDAiIGZvbnQtZmFtaWx5PSJzYW5zLXNlcmlmIiBmb250LXNpemU9IjE0IiBsZW5ndGhBZGp1c3Q9InNwYWNpbmciIHRleHRMZW5ndGg9IjcwIiB4PSI2NiIgeT0iMTg3NC4yMTg4Ij4tc3R1ZGVudElEPC90ZXh0Pjx0ZXh0IGZpbGw9IiMwMDAwMDAiIGZvbnQtZmFtaWx5PSJzYW5zLXNlcmlmIiBmb250LXNpemU9IjE0IiBsZW5ndGhBZGp1c3Q9InNwYWNpbmciIHRleHRMZW5ndGg9IjEwNSIgeD0iNjYiIHk9IjE4ODkuMjAzMSI+LXN0dWRlbnRTZWN0aW9uPC90ZXh0Pjx0ZXh0IGZpbGw9IiMwMDAwMDAiIGZvbnQtZmFtaWx5PSJzYW5zLXNlcmlmIiBmb250LXNpemU9IjE0IiBsZW5ndGhBZGp1c3Q9InNwYWNpbmciIHRleHRMZW5ndGg9IjkxIiB4PSI2NiIgeT0iMTkwNC4xODc1Ij4tc3R1ZGVudGdyYWRlPC90ZXh0Pjx0ZXh0IGZpbGw9IiMwMDAwMDAiIGZvbnQtZmFtaWx5PSJzYW5zLXNlcmlmIiBmb250LXNpemU9IjE0IiBsZW5ndGhBZGp1c3Q9InNwYWNpbmciIHRleHRMZW5ndGg9IjkxIiB4PSI2NiIgeT0iMTkxOS4xNzE5Ij4tc3R1ZGVudENsYXNzPC90ZXh0Pjx0ZXh0IGZpbGw9IiMwMDAwMDAiIGZvbnQtZmFtaWx5PSJzYW5zLXNlcmlmIiBmb250LXNpemU9IjE0IiBsZW5ndGhBZGp1c3Q9InNwYWNpbmciIHRleHRMZW5ndGg9Ijk4IiB4PSI2NiIgeT0iMTkzNC4xNTYzIj4tc3R1ZGVudFJlcG9ydDwvdGV4dD48bGluZSBzdHlsZT0ic3Ryb2tlOiMxODE4MTg7c3Ryb2tlLXdpZHRoOjAuNTsiIHgxPSI2MSIgeDI9IjI0MSIgeTE9IjE5MzkuOTA2MyIgeTI9IjE5MzkuOTA2MyIvPjx0ZXh0IGZpbGw9IiMwMDAwMDAiIGZvbnQtZmFtaWx5PSJzYW5zLXNlcmlmIiBmb250LXNpemU9IjE0IiBsZW5ndGhBZGp1c3Q9InNwYWNpbmciIHRleHRMZW5ndGg9IjEwMSIgeD0iNjYiIHk9IjE5NTcuMTQwNiI+K3ZpZXdTdHVkZW50KCk8L3RleHQ+PHRleHQgZmlsbD0iIzAwMDAwMCIgZm9udC1mYW1pbHk9InNhbnMtc2VyaWYiIGZvbnQtc2l6ZT0iMTQiIGxlbmd0aEFkanVzdD0ic3BhY2luZyIgdGV4dExlbmd0aD0iMTE0IiB4PSI2NiIgeT0iMTk3Mi4xMjUiPitjcmVhdGVTdHVkZW50KCk8L3RleHQ+PHRleHQgZmlsbD0iIzAwMDAwMCIgZm9udC1mYW1pbHk9InNhbnMtc2VyaWYiIGZvbnQtc2l6ZT0iMTQiIGxlbmd0aEFkanVzdD0ic3BhY2luZyIgdGV4dExlbmd0aD0iMTE0IiB4PSI2NiIgeT0iMTk4Ny4xMDk0Ij4rdXBkYXRlU3R1ZGVudCgpPC90ZXh0Pjx0ZXh0IGZpbGw9IiMwMDAwMDAiIGZvbnQtZmFtaWx5PSJzYW5zLXNlcmlmIiBmb250LXNpemU9IjE0IiBsZW5ndGhBZGp1c3Q9InNwYWNpbmciIHRleHRMZW5ndGg9IjExNCIgeD0iNjYiIHk9IjIwMDIuMDkzOCI+K2RlbGV0ZVN0dWRlbnQoKTwvdGV4dD48dGV4dCBmaWxsPSIjMDAwMDAwIiBmb250LWZhbWlseT0ic2Fucy1zZXJpZiIgZm9udC1zaXplPSIxNCIgbGVuZ3RoQWRqdXN0PSJzcGFjaW5nIiB0ZXh0TGVuZ3RoPSIxNDMiIHg9IjY2IiB5PSIyMDE3LjA3ODEiPit2aWV3U3R1ZGVudFJlcG9ydCgpPC90ZXh0Pjx0ZXh0IGZpbGw9IiMwMDAwMDAiIGZvbnQtZmFtaWx5PSJzYW5zLXNlcmlmIiBmb250LXNpemU9IjE0IiBsZW5ndGhBZGp1c3Q9InNwYWNpbmciIHRleHRMZW5ndGg9IjE3MCIgeD0iNjYiIHk9IjIwMzIuMDYyNSI+K2dlbmVyYXRlU3R1ZGVudFJlcG9ydCgpPC90ZXh0Pjx0ZXh0IGZpbGw9IiMwMDAwMDAiIGZvbnQtZmFtaWx5PSJzYW5zLXNlcmlmIiBmb250LXNpemU9IjE0IiBsZW5ndGhBZGp1c3Q9InNwYWNpbmciIHRleHRMZW5ndGg9IjExNSIgeD0iNjYiIHk9IjIwNDcuMDQ2OSI+K2luZm9ybVN0dWRlbnQoKTwvdGV4dD48L2c+PCEtLWNsYXNzIFRlYWNoZXItLT48ZyBpZD0iZWxlbV9UZWFjaGVyIj48cmVjdCBjb2RlTGluZT0iNDciIGZpbGw9IiNGMUYxRjEiIGhlaWdodD0iMjM1Ljc4MTMiIGlkPSJUZWFjaGVyIiByeD0iMi41IiByeT0iMi41IiBzdHlsZT0ic3Ryb2tlOiMxODE4MTg7c3Ryb2tlLXdpZHRoOjAuNTsiIHdpZHRoPSIxODIiIHg9IjQ5NiIgeT0iNDY4Ii8+PHRleHQgZmlsbD0iIzAwMDAwMCIgZm9udC1mYW1pbHk9InNhbnMtc2VyaWYiIGZvbnQtc2l6ZT0iMTQiIGxlbmd0aEFkanVzdD0ic3BhY2luZyIgdGV4dExlbmd0aD0iNDkiIHg9IjU2Mi41IiB5PSI0ODYuMjM0NCI+VGVhY2hlcjwvdGV4dD48bGluZSBzdHlsZT0ic3Ryb2tlOiMxODE4MTg7c3Ryb2tlLXdpZHRoOjAuNTsiIHgxPSI0OTciIHgyPSI2NzciIHkxPSI0OTIuOTg0NCIgeTI9IjQ5Mi45ODQ0Ii8+PHRleHQgZmlsbD0iIzAwMDAwMCIgZm9udC1mYW1pbHk9InNhbnMtc2VyaWYiIGZvbnQtc2l6ZT0iMTQiIGxlbmd0aEFkanVzdD0ic3BhY2luZyIgdGV4dExlbmd0aD0iNzciIHg9IjUwMiIgeT0iNTEwLjIxODgiPiNncmFkZVZhbHVlPC90ZXh0Pjx0ZXh0IGZpbGw9IiMwMDAwMDAiIGZvbnQtZmFtaWx5PSJzYW5zLXNlcmlmIiBmb250LXNpemU9IjE0IiBsZW5ndGhBZGp1c3Q9InNwYWNpbmciIHRleHRMZW5ndGg9IjcwIiB4PSI1MDIiIHk9IjUyNS4yMDMxIj4jdGVhY2hlcklEPC90ZXh0Pjx0ZXh0IGZpbGw9IiMwMDAwMDAiIGZvbnQtZmFtaWx5PSJzYW5zLXNlcmlmIiBmb250LXNpemU9IjE0IiBsZW5ndGhBZGp1c3Q9InNwYWNpbmciIHRleHRMZW5ndGg9IjExMiIgeD0iNTAyIiB5PSI1NDAuMTg3NSI+I3RlYWNoZXJTdWJqZWN0czwvdGV4dD48dGV4dCBmaWxsPSIjMDAwMDAwIiBmb250LWZhbWlseT0ic2Fucy1zZXJpZiIgZm9udC1zaXplPSIxNCIgbGVuZ3RoQWRqdXN0PSJzcGFjaW5nIiB0ZXh0TGVuZ3RoPSI5MSIgeD0iNTAyIiB5PSI1NTUuMTcxOSI+I3RlYWNoZXJDbGFzczwvdGV4dD48dGV4dCBmaWxsPSIjMDAwMDAwIiBmb250LWZhbWlseT0ic2Fucy1zZXJpZiIgZm9udC1zaXplPSIxNCIgbGVuZ3RoQWRqdXN0PSJzcGFjaW5nIiB0ZXh0TGVuZ3RoPSIxMDUiIHg9IjUwMiIgeT0iNTcwLjE1NjMiPiN0ZWFjaGVyU2VjdGlvbjwvdGV4dD48dGV4dCBmaWxsPSIjMDAwMDAwIiBmb250LWZhbWlseT0ic2Fucy1zZXJpZiIgZm9udC1zaXplPSIxNCIgbGVuZ3RoQWRqdXN0PSJzcGFjaW5nIiB0ZXh0TGVuZ3RoPSI5OCIgeD0iNTAyIiB5PSI1ODUuMTQwNiI+I3RlYWNoZXJSZXBvcnQ8L3RleHQ+PGxpbmUgc3R5bGU9InN0cm9rZTojMTgxODE4O3N0cm9rZS13aWR0aDowLjU7IiB4MT0iNDk3IiB4Mj0iNjc3IiB5MT0iNTkwLjg5MDYiIHkyPSI1OTAuODkwNiIvPjx0ZXh0IGZpbGw9IiMwMDAwMDAiIGZvbnQtZmFtaWx5PSJzYW5zLXNlcmlmIiBmb250LXNpemU9IjE0IiBsZW5ndGhBZGp1c3Q9InNwYWNpbmciIHRleHRMZW5ndGg9IjEwMSIgeD0iNTAyIiB5PSI2MDguMTI1Ij4rdmlld1RlYWNoZXIoKTwvdGV4dD48dGV4dCBmaWxsPSIjMDAwMDAwIiBmb250LWZhbWlseT0ic2Fucy1zZXJpZiIgZm9udC1zaXplPSIxNCIgbGVuZ3RoQWRqdXN0PSJzcGFjaW5nIiB0ZXh0TGVuZ3RoPSIxMTQiIHg9IjUwMiIgeT0iNjIzLjEwOTQiPitjcmVhdGVUZWFjaGVyKCk8L3RleHQ+PHRleHQgZmlsbD0iIzAwMDAwMCIgZm9udC1mYW1pbHk9InNhbnMtc2VyaWYiIGZvbnQtc2l6ZT0iMTQiIGxlbmd0aEFkanVzdD0ic3BhY2luZyIgdGV4dExlbmd0aD0iMTE0IiB4PSI1MDIiIHk9IjYzOC4wOTM4Ij4rdXBkYXRlVGVhY2hlcigpPC90ZXh0Pjx0ZXh0IGZpbGw9IiMwMDAwMDAiIGZvbnQtZmFtaWx5PSJzYW5zLXNlcmlmIiBmb250LXNpemU9IjE0IiBsZW5ndGhBZGp1c3Q9InNwYWNpbmciIHRleHRMZW5ndGg9IjExNCIgeD0iNTAyIiB5PSI2NTMuMDc4MSI+K2RlbGV0ZVRlYWNoZXIoKTwvdGV4dD48dGV4dCBmaWxsPSIjMDAwMDAwIiBmb250LWZhbWlseT0ic2Fucy1zZXJpZiIgZm9udC1zaXplPSIxNCIgbGVuZ3RoQWRqdXN0PSJzcGFjaW5nIiB0ZXh0TGVuZ3RoPSIxNDMiIHg9IjUwMiIgeT0iNjY4LjA2MjUiPit2aWV3VGVhY2hlclJlcG9ydCgpPC90ZXh0Pjx0ZXh0IGZpbGw9IiMwMDAwMDAiIGZvbnQtZmFtaWx5PSJzYW5zLXNlcmlmIiBmb250LXNpemU9IjE0IiBsZW5ndGhBZGp1c3Q9InNwYWNpbmciIHRleHRMZW5ndGg9IjE3MCIgeD0iNTAyIiB5PSI2ODMuMDQ2OSI+K2dlbmVyYXRlVGVhY2hlclJlcG9ydCgpPC90ZXh0Pjx0ZXh0IGZpbGw9IiMwMDAwMDAiIGZvbnQtZmFtaWx5PSJzYW5zLXNlcmlmIiBmb250LXNpemU9IjE0IiBsZW5ndGhBZGp1c3Q9InNwYWNpbmciIHRleHRMZW5ndGg9IjExNSIgeD0iNTAyIiB5PSI2OTguMDMxMyI+K2luZm9ybVRlYWNoZXIoKTwvdGV4dD48L2c+PCEtLWNsYXNzIFNlY3Rpb25hbEhlYWQtLT48ZyBpZD0iZWxlbV9TZWN0aW9uYWxIZWFkIj48cmVjdCBjb2RlTGluZT0iNjMiIGZpbGw9IiNGMUYxRjEiIGhlaWdodD0iMTc1Ljg0MzgiIGlkPSJTZWN0aW9uYWxIZWFkIiByeD0iMi41IiByeT0iMi41IiBzdHlsZT0ic3Ryb2tlOiMxODE4MTg7c3Ryb2tlLXdpZHRoOjAuNTsiIHdpZHRoPSIyMjQiIHg9IjQ3NSIgeT0iNzY0Ii8+PHRleHQgZmlsbD0iIzAwMDAwMCIgZm9udC1mYW1pbHk9InNhbnMtc2VyaWYiIGZvbnQtc2l6ZT0iMTQiIGxlbmd0aEFkanVzdD0ic3BhY2luZyIgdGV4dExlbmd0aD0iOTEiIHg9IjU0MS41IiB5PSI3ODIuMjM0NCI+U2VjdGlvbmFsSGVhZDwvdGV4dD48bGluZSBzdHlsZT0ic3Ryb2tlOiMxODE4MTg7c3Ryb2tlLXdpZHRoOjAuNTsiIHgxPSI0NzYiIHgyPSI2OTgiIHkxPSI3ODguOTg0NCIgeTI9Ijc4OC45ODQ0Ii8+PHRleHQgZmlsbD0iIzAwMDAwMCIgZm9udC1mYW1pbHk9InNhbnMtc2VyaWYiIGZvbnQtc2l6ZT0iMTQiIGxlbmd0aEFkanVzdD0ic3BhY2luZyIgdGV4dExlbmd0aD0iNTYiIHg9IjQ4MSIgeT0iODA2LjIxODgiPi1zZWN0aW9uPC90ZXh0Pjx0ZXh0IGZpbGw9IiMwMDAwMDAiIGZvbnQtZmFtaWx5PSJzYW5zLXNlcmlmIiBmb250LXNpemU9IjE0IiBsZW5ndGhBZGp1c3Q9InNwYWNpbmciIHRleHRMZW5ndGg9IjE0MCIgeD0iNDgxIiB5PSI4MjEuMjAzMSI+LXNlY3Rpb25hbEhlYWRSZXBvcnQ8L3RleHQ+PGxpbmUgc3R5bGU9InN0cm9rZTojMTgxODE4O3N0cm9rZS13aWR0aDowLjU7IiB4MT0iNDc2IiB4Mj0iNjk4IiB5MT0iODI2Ljk1MzEiIHkyPSI4MjYuOTUzMSIvPjx0ZXh0IGZpbGw9IiMwMDAwMDAiIGZvbnQtZmFtaWx5PSJzYW5zLXNlcmlmIiBmb250LXNpemU9IjE0IiBsZW5ndGhBZGp1c3Q9InNwYWNpbmciIHRleHRMZW5ndGg9IjE0MyIgeD0iNDgxIiB5PSI4NDQuMTg3NSI+K3ZpZXdTZWN0aW9uYWxIZWFkKCk8L3RleHQ+PHRleHQgZmlsbD0iIzAwMDAwMCIgZm9udC1mYW1pbHk9InNhbnMtc2VyaWYiIGZvbnQtc2l6ZT0iMTQiIGxlbmd0aEFkanVzdD0ic3BhY2luZyIgdGV4dExlbmd0aD0iMTU2IiB4PSI0ODEiIHk9Ijg1OS4xNzE5Ij4rY3JlYXRlU2VjdGlvbmFsSGVhZCgpPC90ZXh0Pjx0ZXh0IGZpbGw9IiMwMDAwMDAiIGZvbnQtZmFtaWx5PSJzYW5zLXNlcmlmIiBmb250LXNpemU9IjE0IiBsZW5ndGhBZGp1c3Q9InNwYWNpbmciIHRleHRMZW5ndGg9IjE1NiIgeD0iNDgxIiB5PSI4NzQuMTU2MyI+K3VwZGF0ZVNlY3Rpb25hbEhlYWQoKTwvdGV4dD48dGV4dCBmaWxsPSIjMDAwMDAwIiBmb250LWZhbWlseT0ic2Fucy1zZXJpZiIgZm9udC1zaXplPSIxNCIgbGVuZ3RoQWRqdXN0PSJzcGFjaW5nIiB0ZXh0TGVuZ3RoPSIxNTYiIHg9IjQ4MSIgeT0iODg5LjE0MDYiPitkZWxldGVTZWN0aW9uYWxIZWFkKCk8L3RleHQ+PHRleHQgZmlsbD0iIzAwMDAwMCIgZm9udC1mYW1pbHk9InNhbnMtc2VyaWYiIGZvbnQtc2l6ZT0iMTQiIGxlbmd0aEFkanVzdD0ic3BhY2luZyIgdGV4dExlbmd0aD0iMTg1IiB4PSI0ODEiIHk9IjkwNC4xMjUiPit2aWV3U2VjdGlvbmFsSGVhZFJlcG9ydCgpPC90ZXh0Pjx0ZXh0IGZpbGw9IiMwMDAwMDAiIGZvbnQtZmFtaWx5PSJzYW5zLXNlcmlmIiBmb250LXNpemU9IjE0IiBsZW5ndGhBZGp1c3Q9InNwYWNpbmciIHRleHRMZW5ndGg9IjIxMiIgeD0iNDgxIiB5PSI5MTkuMTA5NCI+K2dlbmVyYXRlU2VjdGlvbmFsSGVhZFJlcG9ydCgpPC90ZXh0Pjx0ZXh0IGZpbGw9IiMwMDAwMDAiIGZvbnQtZmFtaWx5PSJzYW5zLXNlcmlmIiBmb250LXNpemU9IjE0IiBsZW5ndGhBZGp1c3Q9InNwYWNpbmciIHRleHRMZW5ndGg9IjE1NyIgeD0iNDgxIiB5PSI5MzQuMDkzOCI+K2luZm9ybVNlY3Rpb25hbEhlYWQoKTwvdGV4dD48L2c+PCEtLWNsYXNzIFZpY2VQcmluY2lwYWwtLT48ZyBpZD0iZWxlbV9WaWNlUHJpbmNpcGFsIj48cmVjdCBjb2RlTGluZT0iNzUiIGZpbGw9IiNGMUYxRjEiIGhlaWdodD0iMTAwLjkyMTkiIGlkPSJWaWNlUHJpbmNpcGFsIiByeD0iMi41IiByeT0iMi41IiBzdHlsZT0ic3Ryb2tlOiMxODE4MTg7c3Ryb2tlLXdpZHRoOjAuNTsiIHdpZHRoPSIxNjkiIHg9IjUyMS41IiB5PSIxMDkwIi8+PHRleHQgZmlsbD0iIzAwMDAwMCIgZm9udC1mYW1pbHk9InNhbnMtc2VyaWYiIGZvbnQtc2l6ZT0iMTQiIGxlbmd0aEFkanVzdD0ic3BhY2luZyIgdGV4dExlbmd0aD0iOTEiIHg9IjU2MC41IiB5PSIxMTA4LjIzNDQiPlZpY2VQcmluY2lwYWw8L3RleHQ+PGxpbmUgc3R5bGU9InN0cm9rZTojMTgxODE4O3N0cm9rZS13aWR0aDowLjU7IiB4MT0iNTIyLjUiIHgyPSI2ODkuNSIgeTE9IjExMTQuOTg0NCIgeTI9IjExMTQuOTg0NCIvPjx0ZXh0IGZpbGw9IiMwMDAwMDAiIGZvbnQtZmFtaWx5PSJzYW5zLXNlcmlmIiBmb250LXNpemU9IjE0IiBsZW5ndGhBZGp1c3Q9InNwYWNpbmciIHRleHRMZW5ndGg9IjEyNiIgeD0iNTI3LjUiIHk9IjExMzIuMjE4OCI+I3ZpY2VQcmluY2lwYWxUeXBlPC90ZXh0Pjx0ZXh0IGZpbGw9IiMwMDAwMDAiIGZvbnQtZmFtaWx5PSJzYW5zLXNlcmlmIiBmb250LXNpemU9IjE0IiBsZW5ndGhBZGp1c3Q9InNwYWNpbmciIHRleHRMZW5ndGg9IjE0MCIgeD0iNTI3LjUiIHk9IjExNDcuMjAzMSI+I3ZpY2VQcmluY2lwYWxSZXBvcnQ8L3RleHQ+PGxpbmUgc3R5bGU9InN0cm9rZTojMTgxODE4O3N0cm9rZS13aWR0aDowLjU7IiB4MT0iNTIyLjUiIHgyPSI2ODkuNSIgeTE9IjExNTIuOTUzMSIgeTI9IjExNTIuOTUzMSIvPjx0ZXh0IGZpbGw9IiMwMDAwMDAiIGZvbnQtZmFtaWx5PSJzYW5zLXNlcmlmIiBmb250LXNpemU9IjE0IiBsZW5ndGhBZGp1c3Q9InNwYWNpbmciIHRleHRMZW5ndGg9IjE1NyIgeD0iNTI3LjUiIHk9IjExNzAuMTg3NSI+I2luZm9ybVZpY2VQcmluY2lwYWwoKTwvdGV4dD48dGV4dCBmaWxsPSIjMDAwMDAwIiBmb250LWZhbWlseT0ic2Fucy1zZXJpZiIgZm9udC1zaXplPSIxNCIgbGVuZ3RoQWRqdXN0PSJzcGFjaW5nIiB0ZXh0TGVuZ3RoPSIxNTAiIHg9IjUyNy41IiB5PSIxMTg1LjE3MTkiPiNtYW5hZ2VTY2hvb2xCdWRnZXQoKTwvdGV4dD48L2c+PCEtLWNsYXNzIFByaW5jaXBhbC0tPjxnIGlkPSJlbGVtX1ByaW5jaXBhbCI+PHJlY3QgY29kZUxpbmU9IjgyIiBmaWxsPSIjRjFGMUYxIiBoZWlnaHQ9Ijg1LjkzNzUiIGlkPSJQcmluY2lwYWwiIHJ4PSIyLjUiIHJ5PSIyLjUiIHN0eWxlPSJzdHJva2U6IzE4MTgxODtzdHJva2Utd2lkdGg6MC41OyIgd2lkdGg9IjE0MSIgeD0iNTYyLjUiIHk9IjE1MDYiLz48dGV4dCBmaWxsPSIjMDAwMDAwIiBmb250LWZhbWlseT0ic2Fucy1zZXJpZiIgZm9udC1zaXplPSIxNCIgbGVuZ3RoQWRqdXN0PSJzcGFjaW5nIiB0ZXh0TGVuZ3RoPSI2MyIgeD0iNjAxLjUiIHk9IjE1MjQuMjM0NCI+UHJpbmNpcGFsPC90ZXh0PjxsaW5lIHN0eWxlPSJzdHJva2U6IzE4MTgxODtzdHJva2Utd2lkdGg6MC41OyIgeDE9IjU2My41IiB4Mj0iNzAyLjUiIHkxPSIxNTMwLjk4NDQiIHkyPSIxNTMwLjk4NDQiLz48dGV4dCBmaWxsPSIjMDAwMDAwIiBmb250LWZhbWlseT0ic2Fucy1zZXJpZiIgZm9udC1zaXplPSIxNCIgbGVuZ3RoQWRqdXN0PSJzcGFjaW5nIiB0ZXh0TGVuZ3RoPSI5OCIgeD0iNTY4LjUiIHk9IjE1NDguMjE4OCI+I3ByaW5jaXBhbFR5cGU8L3RleHQ+PHRleHQgZmlsbD0iIzAwMDAwMCIgZm9udC1mYW1pbHk9InNhbnMtc2VyaWYiIGZvbnQtc2l6ZT0iMTQiIGxlbmd0aEFkanVzdD0ic3BhY2luZyIgdGV4dExlbmd0aD0iMTEyIiB4PSI1NjguNSIgeT0iMTU2My4yMDMxIj4jcHJpbmNpcGFsUmVwb3J0PC90ZXh0PjxsaW5lIHN0eWxlPSJzdHJva2U6IzE4MTgxODtzdHJva2Utd2lkdGg6MC41OyIgeDE9IjU2My41IiB4Mj0iNzAyLjUiIHkxPSIxNTY4Ljk1MzEiIHkyPSIxNTY4Ljk1MzEiLz48dGV4dCBmaWxsPSIjMDAwMDAwIiBmb250LWZhbWlseT0ic2Fucy1zZXJpZiIgZm9udC1zaXplPSIxNCIgbGVuZ3RoQWRqdXN0PSJzcGFjaW5nIiB0ZXh0TGVuZ3RoPSIxMjkiIHg9IjU2OC41IiB5PSIxNTg2LjE4NzUiPiNpbmZvcm1QcmluY2lwYWwoKTwvdGV4dD48L2c+PCEtLWNsYXNzIEFkbWluLS0+PGcgaWQ9ImVsZW1fQWRtaW4iPjxyZWN0IGNvZGVMaW5lPSI4OCIgZmlsbD0iI0YxRjFGMSIgaGVpZ2h0PSIyNTAuNzY1NiIgaWQ9IkFkbWluIiByeD0iMi41IiByeT0iMi41IiBzdHlsZT0ic3Ryb2tlOiMxODE4MTg7c3Ryb2tlLXdpZHRoOjAuNTsiIHdpZHRoPSIxODQiIHg9Ijg4MSIgeT0iMTgxNyIvPjx0ZXh0IGZpbGw9IiMwMDAwMDAiIGZvbnQtZmFtaWx5PSJzYW5zLXNlcmlmIiBmb250LXNpemU9IjE0IiBsZW5ndGhBZGp1c3Q9InNwYWNpbmciIHRleHRMZW5ndGg9IjM2IiB4PSI5NTUiIHk9IjE4MzUuMjM0NCI+QWRtaW48L3RleHQ+PGxpbmUgc3R5bGU9InN0cm9rZTojMTgxODE4O3N0cm9rZS13aWR0aDowLjU7IiB4MT0iODgyIiB4Mj0iMTA2NCIgeTE9IjE4NDEuOTg0NCIgeTI9IjE4NDEuOTg0NCIvPjx0ZXh0IGZpbGw9IiMwMDAwMDAiIGZvbnQtZmFtaWx5PSJzYW5zLXNlcmlmIiBmb250LXNpemU9IjE0IiBsZW5ndGhBZGp1c3Q9InNwYWNpbmciIHRleHRMZW5ndGg9IjU3IiB4PSI4ODciIHk9IjE4NTkuMjE4OCI+LWFkbWluSUQ8L3RleHQ+PHRleHQgZmlsbD0iIzAwMDAwMCIgZm9udC1mYW1pbHk9InNhbnMtc2VyaWYiIGZvbnQtc2l6ZT0iMTQiIGxlbmd0aEFkanVzdD0ic3BhY2luZyIgdGV4dExlbmd0aD0iNzEiIHg9Ijg4NyIgeT0iMTg3NC4yMDMxIj4tYWRtaW5UeXBlPC90ZXh0Pjx0ZXh0IGZpbGw9IiMwMDAwMDAiIGZvbnQtZmFtaWx5PSJzYW5zLXNlcmlmIiBmb250LXNpemU9IjE0IiBsZW5ndGhBZGp1c3Q9InNwYWNpbmciIHRleHRMZW5ndGg9Ijg1IiB4PSI4ODciIHk9IjE4ODkuMTg3NSI+LWFkbWluUmVwb3J0PC90ZXh0Pjx0ZXh0IGZpbGw9IiMwMDAwMDAiIGZvbnQtZmFtaWx5PSJzYW5zLXNlcmlmIiBmb250LXNpemU9IjE0IiBsZW5ndGhBZGp1c3Q9InNwYWNpbmciIHRleHRMZW5ndGg9IjY0IiB4PSI4ODciIHk9IjE5MDQuMTcxOSI+LWFkbWluTG9nPC90ZXh0PjxsaW5lIHN0eWxlPSJzdHJva2U6IzE4MTgxODtzdHJva2Utd2lkdGg6MC41OyIgeDE9Ijg4MiIgeDI9IjEwNjQiIHkxPSIxOTA5LjkyMTkiIHkyPSIxOTA5LjkyMTkiLz48dGV4dCBmaWxsPSIjMDAwMDAwIiBmb250LWZhbWlseT0ic2Fucy1zZXJpZiIgZm9udC1zaXplPSIxNCIgbGVuZ3RoQWRqdXN0PSJzcGFjaW5nIiB0ZXh0TGVuZ3RoPSIxNTEiIHg9Ijg4NyIgeT0iMTkyNy4xNTYzIj4tdmlld1N5c3RlbURhdGFiYXNlKCk8L3RleHQ+PHRleHQgZmlsbD0iIzAwMDAwMCIgZm9udC1mYW1pbHk9InNhbnMtc2VyaWYiIGZvbnQtc2l6ZT0iMTQiIGxlbmd0aEFkanVzdD0ic3BhY2luZyIgdGV4dExlbmd0aD0iMTUwIiB4PSI4ODciIHk9IjE5NDIuMTQwNiI+LWVkaXRTeXN0ZW1EYXRhYmFzZSgpPC90ZXh0Pjx0ZXh0IGZpbGw9IiMwMDAwMDAiIGZvbnQtZmFtaWx5PSJzYW5zLXNlcmlmIiBmb250LXNpemU9IjE0IiBsZW5ndGhBZGp1c3Q9InNwYWNpbmciIHRleHRMZW5ndGg9Ijg3IiB4PSI4ODciIHk9IjE5NTcuMTI1Ij4tdmlld1VzZXJzKCk8L3RleHQ+PHRleHQgZmlsbD0iIzAwMDAwMCIgZm9udC1mYW1pbHk9InNhbnMtc2VyaWYiIGZvbnQtc2l6ZT0iMTQiIGxlbmd0aEFkanVzdD0ic3BhY2luZyIgdGV4dExlbmd0aD0iODYiIHg9Ijg4NyIgeT0iMTk3Mi4xMDk0Ij4tZWRpdFVzZXJzKCk8L3RleHQ+PHRleHQgZmlsbD0iIzAwMDAwMCIgZm9udC1mYW1pbHk9InNhbnMtc2VyaWYiIGZvbnQtc2l6ZT0iMTQiIGxlbmd0aEFkanVzdD0ic3BhY2luZyIgdGV4dExlbmd0aD0iMTcyIiB4PSI4ODciIHk9IjE5ODcuMDkzOCI+LW1vZGlmeVVzZXJQZXJtaXNzaW9ucygpPC90ZXh0Pjx0ZXh0IGZpbGw9IiMwMDAwMDAiIGZvbnQtZmFtaWx5PSJzYW5zLXNlcmlmIiBmb250LXNpemU9IjE0IiBsZW5ndGhBZGp1c3Q9InNwYWNpbmciIHRleHRMZW5ndGg9IjE0NCIgeD0iODg3IiB5PSIyMDAyLjA3ODEiPi12aWV3U3lzdGVtTW9uaXRvcigpPC90ZXh0Pjx0ZXh0IGZpbGw9IiMwMDAwMDAiIGZvbnQtZmFtaWx5PSJzYW5zLXNlcmlmIiBmb250LXNpemU9IjE0IiBsZW5ndGhBZGp1c3Q9InNwYWNpbmciIHRleHRMZW5ndGg9IjExNSIgeD0iODg3IiB5PSIyMDE3LjA2MjUiPi1zeXN0ZW1CYWNrdXBzKCk8L3RleHQ+PHRleHQgZmlsbD0iIzAwMDAwMCIgZm9udC1mYW1pbHk9InNhbnMtc2VyaWYiIGZvbnQtc2l6ZT0iMTQiIGxlbmd0aEFkanVzdD0ic3BhY2luZyIgdGV4dExlbmd0aD0iMTAxIiB4PSI4ODciIHk9IjIwMzIuMDQ2OSI+LXZpZXdCYWNrdXBzKCk8L3RleHQ+PHRleHQgZmlsbD0iIzAwMDAwMCIgZm9udC1mYW1pbHk9InNhbnMtc2VyaWYiIGZvbnQtc2l6ZT0iMTQiIGxlbmd0aEFkanVzdD0ic3BhY2luZyIgdGV4dExlbmd0aD0iMTIxIiB4PSI4ODciIHk9IjIwNDcuMDMxMyI+LXJlc3RvcmVCYWNrdXBzKCk8L3RleHQ+PHRleHQgZmlsbD0iIzAwMDAwMCIgZm9udC1mYW1pbHk9InNhbnMtc2VyaWYiIGZvbnQtc2l6ZT0iMTQiIGxlbmd0aEFkanVzdD0ic3BhY2luZyIgdGV4dExlbmd0aD0iMTcxIiB4PSI4ODciIHk9IjIwNjIuMDE1NiI+LWdlbmVyYXRlU3lzdGVtUmVwb3J0cygpPC90ZXh0PjwvZz48IS0tY2xhc3MgU2VjdGlvbi0tPjxnIGlkPSJlbGVtX1NlY3Rpb24iPjxyZWN0IGNvZGVMaW5lPSIxMDUiIGZpbGw9IiNGMUYxRjEiIGhlaWdodD0iMjgwLjczNDQiIGlkPSJTZWN0aW9uIiByeD0iMi41IiByeT0iMi41IiBzdHlsZT0ic3Ryb2tlOiMxODE4MTg7c3Ryb2tlLXdpZHRoOjAuNTsiIHdpZHRoPSIxODIiIHg9IjMwNCIgeT0iMTAwMCIvPjx0ZXh0IGZpbGw9IiMwMDAwMDAiIGZvbnQtZmFtaWx5PSJzYW5zLXNlcmlmIiBmb250LXNpemU9IjE0IiBsZW5ndGhBZGp1c3Q9InNwYWNpbmciIHRleHRMZW5ndGg9IjQ5IiB4PSIzNzAuNSIgeT0iMTAxOC4yMzQ0Ij5TZWN0aW9uPC90ZXh0PjxsaW5lIHN0eWxlPSJzdHJva2U6IzE4MTgxODtzdHJva2Utd2lkdGg6MC41OyIgeDE9IjMwNSIgeDI9IjQ4NSIgeTE9IjEwMjQuOTg0NCIgeTI9IjEwMjQuOTg0NCIvPjx0ZXh0IGZpbGw9IiMwMDAwMDAiIGZvbnQtZmFtaWx5PSJzYW5zLXNlcmlmIiBmb250LXNpemU9IjE0IiBsZW5ndGhBZGp1c3Q9InNwYWNpbmciIHRleHRMZW5ndGg9IjU2IiB4PSIzMTAiIHk9IjEwNDIuMjE4OCI+LXNlY3Rpb248L3RleHQ+PHRleHQgZmlsbD0iIzAwMDAwMCIgZm9udC1mYW1pbHk9InNhbnMtc2VyaWYiIGZvbnQtc2l6ZT0iMTQiIGxlbmd0aEFkanVzdD0ic3BhY2luZyIgdGV4dExlbmd0aD0iOTgiIHg9IjMxMCIgeT0iMTA1Ny4yMDMxIj4tc2VjdGlvbmFsSGVhZDwvdGV4dD48dGV4dCBmaWxsPSIjMDAwMDAwIiBmb250LWZhbWlseT0ic2Fucy1zZXJpZiIgZm9udC1zaXplPSIxNCIgbGVuZ3RoQWRqdXN0PSJzcGFjaW5nIiB0ZXh0TGVuZ3RoPSI5OCIgeD0iMzEwIiB5PSIxMDcyLjE4NzUiPi1zZWN0aW9uUmVwb3J0PC90ZXh0Pjx0ZXh0IGZpbGw9IiMwMDAwMDAiIGZvbnQtZmFtaWx5PSJzYW5zLXNlcmlmIiBmb250LXNpemU9IjE0IiBsZW5ndGhBZGp1c3Q9InNwYWNpbmciIHRleHRMZW5ndGg9Ijc3IiB4PSIzMTAiIHk9IjEwODcuMTcxOSI+LXNlY3Rpb25Mb2c8L3RleHQ+PHRleHQgZmlsbD0iIzAwMDAwMCIgZm9udC1mYW1pbHk9InNhbnMtc2VyaWYiIGZvbnQtc2l6ZT0iMTQiIGxlbmd0aEFkanVzdD0ic3BhY2luZyIgdGV4dExlbmd0aD0iMTEyIiB4PSIzMTAiIHk9IjExMDIuMTU2MyI+LXNlY3Rpb25TdHVkZW50czwvdGV4dD48dGV4dCBmaWxsPSIjMDAwMDAwIiBmb250LWZhbWlseT0ic2Fucy1zZXJpZiIgZm9udC1zaXplPSIxNCIgbGVuZ3RoQWRqdXN0PSJzcGFjaW5nIiB0ZXh0TGVuZ3RoPSIxMTIiIHg9IjMxMCIgeT0iMTExNy4xNDA2Ij4tc2VjdGlvblRlYWNoZXJzPC90ZXh0Pjx0ZXh0IGZpbGw9IiMwMDAwMDAiIGZvbnQtZmFtaWx5PSJzYW5zLXNlcmlmIiBmb250LXNpemU9IjE0IiBsZW5ndGhBZGp1c3Q9InNwYWNpbmciIHRleHRMZW5ndGg9IjExMiIgeD0iMzEwIiB5PSIxMTMyLjEyNSI+LXNlY3Rpb25TdWJqZWN0czwvdGV4dD48bGluZSBzdHlsZT0ic3Ryb2tlOiMxODE4MTg7c3Ryb2tlLXdpZHRoOjAuNTsiIHgxPSIzMDUiIHgyPSI0ODUiIHkxPSIxMTM3Ljg3NSIgeTI9IjExMzcuODc1Ii8+PHRleHQgZmlsbD0iIzAwMDAwMCIgZm9udC1mYW1pbHk9InNhbnMtc2VyaWYiIGZvbnQtc2l6ZT0iMTQiIGxlbmd0aEFkanVzdD0ic3BhY2luZyIgdGV4dExlbmd0aD0iMTAxIiB4PSIzMTAiIHk9IjExNTUuMTA5NCI+K3ZpZXdTZWN0aW9uKCk8L3RleHQ+PHRleHQgZmlsbD0iIzAwMDAwMCIgZm9udC1mYW1pbHk9InNhbnMtc2VyaWYiIGZvbnQtc2l6ZT0iMTQiIGxlbmd0aEFkanVzdD0ic3BhY2luZyIgdGV4dExlbmd0aD0iMTE0IiB4PSIzMTAiIHk9IjExNzAuMDkzOCI+K2NyZWF0ZVNlY3Rpb24oKTwvdGV4dD48dGV4dCBmaWxsPSIjMDAwMDAwIiBmb250LWZhbWlseT0ic2Fucy1zZXJpZiIgZm9udC1zaXplPSIxNCIgbGVuZ3RoQWRqdXN0PSJzcGFjaW5nIiB0ZXh0TGVuZ3RoPSIxMTQiIHg9IjMxMCIgeT0iMTE4NS4wNzgxIj4rdXBkYXRlU2VjdGlvbigpPC90ZXh0Pjx0ZXh0IGZpbGw9IiMwMDAwMDAiIGZvbnQtZmFtaWx5PSJzYW5zLXNlcmlmIiBmb250LXNpemU9IjE0IiBsZW5ndGhBZGp1c3Q9InNwYWNpbmciIHRleHRMZW5ndGg9IjExNCIgeD0iMzEwIiB5PSIxMjAwLjA2MjUiPitkZWxldGVTZWN0aW9uKCk8L3RleHQ+PHRleHQgZmlsbD0iIzAwMDAwMCIgZm9udC1mYW1pbHk9InNhbnMtc2VyaWYiIGZvbnQtc2l6ZT0iMTQiIGxlbmd0aEFkanVzdD0ic3BhY2luZyIgdGV4dExlbmd0aD0iMTE1IiB4PSIzMTAiIHk9IjEyMTUuMDQ2OSI+K2luZm9ybVNlY3Rpb24oKTwvdGV4dD48dGV4dCBmaWxsPSIjMDAwMDAwIiBmb250LWZhbWlseT0ic2Fucy1zZXJpZiIgZm9udC1zaXplPSIxNCIgbGVuZ3RoQWRqdXN0PSJzcGFjaW5nIiB0ZXh0TGVuZ3RoPSIxNzAiIHg9IjMxMCIgeT0iMTIzMC4wMzEzIj4rZ2VuZXJhdGVTZWN0aW9uUmVwb3J0KCk8L3RleHQ+PHRleHQgZmlsbD0iIzAwMDAwMCIgZm9udC1mYW1pbHk9InNhbnMtc2VyaWYiIGZvbnQtc2l6ZT0iMTQiIGxlbmd0aEFkanVzdD0ic3BhY2luZyIgdGV4dExlbmd0aD0iMTQzIiB4PSIzMTAiIHk9IjEyNDUuMDE1NiI+K3ZpZXdTZWN0aW9uUmVwb3J0KCk8L3RleHQ+PHRleHQgZmlsbD0iIzAwMDAwMCIgZm9udC1mYW1pbHk9InNhbnMtc2VyaWYiIGZvbnQtc2l6ZT0iMTQiIGxlbmd0aEFkanVzdD0ic3BhY2luZyIgdGV4dExlbmd0aD0iMTIyIiB4PSIzMTAiIHk9IjEyNjAiPit2aWV3U2VjdGlvbkxvZygpPC90ZXh0Pjx0ZXh0IGZpbGw9IiMwMDAwMDAiIGZvbnQtZmFtaWx5PSJzYW5zLXNlcmlmIiBmb250LXNpemU9IjE0IiBsZW5ndGhBZGp1c3Q9InNwYWNpbmciIHRleHRMZW5ndGg9IjEyMSIgeD0iMzEwIiB5PSIxMjc0Ljk4NDQiPitlZGl0U2VjdGlvbkxvZygpPC90ZXh0PjwvZz48IS0tY2xhc3MgQ2xhc3MtLT48ZyBpZD0iZWxlbV9DbGFzcyI+PHJlY3QgY29kZUxpbmU9IjEyNCIgZmlsbD0iI0YxRjFGMSIgaGVpZ2h0PSI0MTUuNTkzOCIgaWQ9IkNsYXNzIiByeD0iMi41IiByeT0iMi41IiBzdHlsZT0ic3Ryb2tlOiMxODE4MTg7c3Ryb2tlLXdpZHRoOjAuNTsiIHdpZHRoPSIxNjgiIHg9IjE0NiIgeT0iMTM0MSIvPjx0ZXh0IGZpbGw9IiMwMDAwMDAiIGZvbnQtZmFtaWx5PSJzYW5zLXNlcmlmIiBmb250LXNpemU9IjE0IiBsZW5ndGhBZGp1c3Q9InNwYWNpbmciIHRleHRMZW5ndGg9IjM1IiB4PSIyMTIuNSIgeT0iMTM1OS4yMzQ0Ij5DbGFzczwvdGV4dD48bGluZSBzdHlsZT0ic3Ryb2tlOiMxODE4MTg7c3Ryb2tlLXdpZHRoOjAuNTsiIHgxPSIxNDciIHgyPSIzMTMiIHkxPSIxMzY1Ljk4NDQiIHkyPSIxMzY1Ljk4NDQiLz48dGV4dCBmaWxsPSIjMDAwMDAwIiBmb250LWZhbWlseT0ic2Fucy1zZXJpZiIgZm9udC1zaXplPSIxNCIgbGVuZ3RoQWRqdXN0PSJzcGFjaW5nIiB0ZXh0TGVuZ3RoPSI0MiIgeD0iMTUyIiB5PSIxMzgzLjIxODgiPi1jbGFzczwvdGV4dD48dGV4dCBmaWxsPSIjMDAwMDAwIiBmb250LWZhbWlseT0ic2Fucy1zZXJpZiIgZm9udC1zaXplPSIxNCIgbGVuZ3RoQWRqdXN0PSJzcGFjaW5nIiB0ZXh0TGVuZ3RoPSI5MSIgeD0iMTUyIiB5PSIxMzk4LjIwMzEiPi1jbGFzc1RlYWNoZXI8L3RleHQ+PHRleHQgZmlsbD0iIzAwMDAwMCIgZm9udC1mYW1pbHk9InNhbnMtc2VyaWYiIGZvbnQtc2l6ZT0iMTQiIGxlbmd0aEFkanVzdD0ic3BhY2luZyIgdGV4dExlbmd0aD0iOTEiIHg9IjE1MiIgeT0iMTQxMy4xODc1Ij4tY2xhc3NNb25pdG9yPC90ZXh0Pjx0ZXh0IGZpbGw9IiMwMDAwMDAiIGZvbnQtZmFtaWx5PSJzYW5zLXNlcmlmIiBmb250LXNpemU9IjE0IiBsZW5ndGhBZGp1c3Q9InNwYWNpbmciIHRleHRMZW5ndGg9Ijk4IiB4PSIxNTIiIHk9IjE0MjguMTcxOSI+LWNsYXNzU3R1ZGVudHM8L3RleHQ+PHRleHQgZmlsbD0iIzAwMDAwMCIgZm9udC1mYW1pbHk9InNhbnMtc2VyaWYiIGZvbnQtc2l6ZT0iMTQiIGxlbmd0aEFkanVzdD0ic3BhY2luZyIgdGV4dExlbmd0aD0iODQiIHg9IjE1MiIgeT0iMTQ0My4xNTYzIj4tY2xhc3NSZXBvcnQ8L3RleHQ+PHRleHQgZmlsbD0iIzAwMDAwMCIgZm9udC1mYW1pbHk9InNhbnMtc2VyaWYiIGZvbnQtc2l6ZT0iMTQiIGxlbmd0aEFkanVzdD0ic3BhY2luZyIgdGV4dExlbmd0aD0iNjMiIHg9IjE1MiIgeT0iMTQ1OC4xNDA2Ij4tY2xhc3NMb2c8L3RleHQ+PHRleHQgZmlsbD0iIzAwMDAwMCIgZm9udC1mYW1pbHk9InNhbnMtc2VyaWYiIGZvbnQtc2l6ZT0iMTQiIGxlbmd0aEFkanVzdD0ic3BhY2luZyIgdGV4dExlbmd0aD0iNzEiIHg9IjE1MiIgeT0iMTQ3My4xMjUiPi10aW1lVGFibGU8L3RleHQ+PGxpbmUgc3R5bGU9InN0cm9rZTojMTgxODE4O3N0cm9rZS13aWR0aDowLjU7IiB4MT0iMTQ3IiB4Mj0iMzEzIiB5MT0iMTQ3OC44NzUiIHkyPSIxNDc4Ljg3NSIvPjx0ZXh0IGZpbGw9IiMwMDAwMDAiIGZvbnQtZmFtaWx5PSJzYW5zLXNlcmlmIiBmb250LXNpemU9IjE0IiBsZW5ndGhBZGp1c3Q9InNwYWNpbmciIHRleHRMZW5ndGg9IjEwOCIgeD0iMTUyIiB5PSIxNDk2LjEwOTQiPit2aWV3U3R1ZGVudHMoKTwvdGV4dD48dGV4dCBmaWxsPSIjMDAwMDAwIiBmb250LWZhbWlseT0ic2Fucy1zZXJpZiIgZm9udC1zaXplPSIxNCIgbGVuZ3RoQWRqdXN0PSJzcGFjaW5nIiB0ZXh0TGVuZ3RoPSIxMDAiIHg9IjE1MiIgeT0iMTUxMS4wOTM4Ij4rYWRkU3R1ZGVudHMoKTwvdGV4dD48dGV4dCBmaWxsPSIjMDAwMDAwIiBmb250LWZhbWlseT0ic2Fucy1zZXJpZiIgZm9udC1zaXplPSIxNCIgbGVuZ3RoQWRqdXN0PSJzcGFjaW5nIiB0ZXh0TGVuZ3RoPSIxMjIiIHg9IjE1MiIgeT0iMTUyNi4wNzgxIj4rcmVtb3ZlU3R1ZGVudHMoKTwvdGV4dD48dGV4dCBmaWxsPSIjMDAwMDAwIiBmb250LWZhbWlseT0ic2Fucy1zZXJpZiIgZm9udC1zaXplPSIxNCIgbGVuZ3RoQWRqdXN0PSJzcGFjaW5nIiB0ZXh0TGVuZ3RoPSIxMjgiIHg9IjE1MiIgeT0iMTU0MS4wNjI1Ij4rYWRkQ2xhc3NNb25pdG9yKCk8L3RleHQ+PHRleHQgZmlsbD0iIzAwMDAwMCIgZm9udC1mYW1pbHk9InNhbnMtc2VyaWYiIGZvbnQtc2l6ZT0iMTQiIGxlbmd0aEFkanVzdD0ic3BhY2luZyIgdGV4dExlbmd0aD0iMTUwIiB4PSIxNTIiIHk9IjE1NTYuMDQ2OSI+K3JlbW92ZUNsYXNzTW9uaXRvcigpPC90ZXh0Pjx0ZXh0IGZpbGw9IiMwMDAwMDAiIGZvbnQtZmFtaWx5PSJzYW5zLXNlcmlmIiBmb250LXNpemU9IjE0IiBsZW5ndGhBZGp1c3Q9InNwYWNpbmciIHRleHRMZW5ndGg9IjEyOCIgeD0iMTUyIiB5PSIxNTcxLjAzMTMiPithZGRDbGFzc1RlYWNoZXIoKTwvdGV4dD48dGV4dCBmaWxsPSIjMDAwMDAwIiBmb250LWZhbWlseT0ic2Fucy1zZXJpZiIgZm9udC1zaXplPSIxNCIgbGVuZ3RoQWRqdXN0PSJzcGFjaW5nIiB0ZXh0TGVuZ3RoPSIxNTAiIHg9IjE1MiIgeT0iMTU4Ni4wMTU2Ij4rcmVtb3ZlQ2xhc3NUZWFjaGVyKCk8L3RleHQ+PHRleHQgZmlsbD0iIzAwMDAwMCIgZm9udC1mYW1pbHk9InNhbnMtc2VyaWYiIGZvbnQtc2l6ZT0iMTQiIGxlbmd0aEFkanVzdD0ic3BhY2luZyIgdGV4dExlbmd0aD0iMTI5IiB4PSIxNTIiIHk9IjE2MDEiPitjcmVhdGVUaW1lVGFibGUoKTwvdGV4dD48dGV4dCBmaWxsPSIjMDAwMDAwIiBmb250LWZhbWlseT0ic2Fucy1zZXJpZiIgZm9udC1zaXplPSIxNCIgbGVuZ3RoQWRqdXN0PSJzcGFjaW5nIiB0ZXh0TGVuZ3RoPSIxMjkiIHg9IjE1MiIgeT0iMTYxNS45ODQ0Ij4rdXBkYXRlVGltZVRhYmxlKCk8L3RleHQ+PHRleHQgZmlsbD0iIzAwMDAwMCIgZm9udC1mYW1pbHk9InNhbnMtc2VyaWYiIGZvbnQtc2l6ZT0iMTQiIGxlbmd0aEFkanVzdD0ic3BhY2luZyIgdGV4dExlbmd0aD0iMTI5IiB4PSIxNTIiIHk9IjE2MzAuOTY4OCI+K2RlbGV0ZVRpbWVUYWJsZSgpPC90ZXh0Pjx0ZXh0IGZpbGw9IiMwMDAwMDAiIGZvbnQtZmFtaWx5PSJzYW5zLXNlcmlmIiBmb250LXNpemU9IjE0IiBsZW5ndGhBZGp1c3Q9InNwYWNpbmciIHRleHRMZW5ndGg9Ijg3IiB4PSIxNTIiIHk9IjE2NDUuOTUzMSI+K3ZpZXdDbGFzcygpPC90ZXh0Pjx0ZXh0IGZpbGw9IiMwMDAwMDAiIGZvbnQtZmFtaWx5PSJzYW5zLXNlcmlmIiBmb250LXNpemU9IjE0IiBsZW5ndGhBZGp1c3Q9InNwYWNpbmciIHRleHRMZW5ndGg9IjEwMCIgeD0iMTUyIiB5PSIxNjYwLjkzNzUiPitjcmVhdGVDbGFzcygpPC90ZXh0Pjx0ZXh0IGZpbGw9IiMwMDAwMDAiIGZvbnQtZmFtaWx5PSJzYW5zLXNlcmlmIiBmb250LXNpemU9IjE0IiBsZW5ndGhBZGp1c3Q9InNwYWNpbmciIHRleHRMZW5ndGg9IjEwMCIgeD0iMTUyIiB5PSIxNjc1LjkyMTkiPit1cGRhdGVDbGFzcygpPC90ZXh0Pjx0ZXh0IGZpbGw9IiMwMDAwMDAiIGZvbnQtZmFtaWx5PSJzYW5zLXNlcmlmIiBmb250LXNpemU9IjE0IiBsZW5ndGhBZGp1c3Q9InNwYWNpbmciIHRleHRMZW5ndGg9IjEwMCIgeD0iMTUyIiB5PSIxNjkwLjkwNjMiPitkZWxldGVDbGFzcygpPC90ZXh0Pjx0ZXh0IGZpbGw9IiMwMDAwMDAiIGZvbnQtZmFtaWx5PSJzYW5zLXNlcmlmIiBmb250LXNpemU9IjE0IiBsZW5ndGhBZGp1c3Q9InNwYWNpbmciIHRleHRMZW5ndGg9IjE1NiIgeD0iMTUyIiB5PSIxNzA1Ljg5MDYiPitnZW5lcmF0ZUNsYXNzUmVwb3J0KCk8L3RleHQ+PHRleHQgZmlsbD0iIzAwMDAwMCIgZm9udC1mYW1pbHk9InNhbnMtc2VyaWYiIGZvbnQtc2l6ZT0iMTQiIGxlbmd0aEFkanVzdD0ic3BhY2luZyIgdGV4dExlbmd0aD0iMTI5IiB4PSIxNTIiIHk9IjE3MjAuODc1Ij4rdmlld0NsYXNzUmVwb3J0KCk8L3RleHQ+PHRleHQgZmlsbD0iIzAwMDAwMCIgZm9udC1mYW1pbHk9InNhbnMtc2VyaWYiIGZvbnQtc2l6ZT0iMTQiIGxlbmd0aEFkanVzdD0ic3BhY2luZyIgdGV4dExlbmd0aD0iMTA4IiB4PSIxNTIiIHk9IjE3MzUuODU5NCI+K3ZpZXdDbGFzc0xvZygpPC90ZXh0Pjx0ZXh0IGZpbGw9IiMwMDAwMDAiIGZvbnQtZmFtaWx5PSJzYW5zLXNlcmlmIiBmb250LXNpemU9IjE0IiBsZW5ndGhBZGp1c3Q9InNwYWNpbmciIHRleHRMZW5ndGg9IjEwNyIgeD0iMTUyIiB5PSIxNzUwLjg0MzgiPitlZGl0Q2xhc3NMb2coKTwvdGV4dD48L2c+PCEtLWNsYXNzIFBheW1lbnQtLT48ZyBpZD0iZWxlbV9QYXltZW50Ij48cmVjdCBjb2RlTGluZT0iMTUyIiBmaWxsPSIjRjFGMUYxIiBoZWlnaHQ9IjIyMC43OTY5IiBpZD0iUGF5bWVudCIgcng9IjIuNSIgcnk9IjIuNSIgc3R5bGU9InN0cm9rZTojMTgxODE4O3N0cm9rZS13aWR0aDowLjU7IiB3aWR0aD0iMTI3IiB4PSIyNTcuNSIgeT0iMjEzNS41Ii8+PHRleHQgZmlsbD0iIzAwMDAwMCIgZm9udC1mYW1pbHk9InNhbnMtc2VyaWYiIGZvbnQtc2l6ZT0iMTQiIGxlbmd0aEFkanVzdD0ic3BhY2luZyIgdGV4dExlbmd0aD0iNTAiIHg9IjI5NiIgeT0iMjE1My43MzQ0Ij5QYXltZW50PC90ZXh0PjxsaW5lIHN0eWxlPSJzdHJva2U6IzE4MTgxODtzdHJva2Utd2lkdGg6MC41OyIgeDE9IjI1OC41IiB4Mj0iMzgzLjUiIHkxPSIyMTYwLjQ4NDQiIHkyPSIyMTYwLjQ4NDQiLz48dGV4dCBmaWxsPSIjMDAwMDAwIiBmb250LWZhbWlseT0ic2Fucy1zZXJpZiIgZm9udC1zaXplPSIxNCIgbGVuZ3RoQWRqdXN0PSJzcGFjaW5nIiB0ZXh0TGVuZ3RoPSI3MSIgeD0iMjYzLjUiIHk9IjIxNzcuNzE4OCI+LXBheW1lbnRJZDwvdGV4dD48dGV4dCBmaWxsPSIjMDAwMDAwIiBmb250LWZhbWlseT0ic2Fucy1zZXJpZiIgZm9udC1zaXplPSIxNCIgbGVuZ3RoQWRqdXN0PSJzcGFjaW5nIiB0ZXh0TGVuZ3RoPSI4NSIgeD0iMjYzLjUiIHk9IjIxOTIuNzAzMSI+LXBheW1lbnRUeXBlPC90ZXh0Pjx0ZXh0IGZpbGw9IiMwMDAwMDAiIGZvbnQtZmFtaWx5PSJzYW5zLXNlcmlmIiBmb250LXNpemU9IjE0IiBsZW5ndGhBZGp1c3Q9InNwYWNpbmciIHRleHRMZW5ndGg9Ijg1IiB4PSIyNjMuNSIgeT0iMjIwNy42ODc1Ij4tcGF5bWVudFVzZXI8L3RleHQ+PHRleHQgZmlsbD0iIzAwMDAwMCIgZm9udC1mYW1pbHk9InNhbnMtc2VyaWYiIGZvbnQtc2l6ZT0iMTQiIGxlbmd0aEFkanVzdD0ic3BhY2luZyIgdGV4dExlbmd0aD0iNTAiIHg9IjI2My41IiB5PSIyMjIyLjY3MTkiPi1hbW91bnQ8L3RleHQ+PHRleHQgZmlsbD0iIzAwMDAwMCIgZm9udC1mYW1pbHk9InNhbnMtc2VyaWYiIGZvbnQtc2l6ZT0iMTQiIGxlbmd0aEFkanVzdD0ic3BhY2luZyIgdGV4dExlbmd0aD0iODQiIHg9IjI2My41IiB5PSIyMjM3LjY1NjMiPi1kZXNjcmlwdGlvbjwvdGV4dD48dGV4dCBmaWxsPSIjMDAwMDAwIiBmb250LWZhbWlseT0ic2Fucy1zZXJpZiIgZm9udC1zaXplPSIxNCIgbGVuZ3RoQWRqdXN0PSJzcGFjaW5nIiB0ZXh0TGVuZ3RoPSI4NSIgeD0iMjYzLjUiIHk9IjIyNTIuNjQwNiI+LXBheW1lbnREYXRlPC90ZXh0Pjx0ZXh0IGZpbGw9IiMwMDAwMDAiIGZvbnQtZmFtaWx5PSJzYW5zLXNlcmlmIiBmb250LXNpemU9IjE0IiBsZW5ndGhBZGp1c3Q9InNwYWNpbmciIHRleHRMZW5ndGg9Ijk5IiB4PSIyNjMuNSIgeT0iMjI2Ny42MjUiPi1wYXltZW50TWV0aG9kPC90ZXh0Pjx0ZXh0IGZpbGw9IiMwMDAwMDAiIGZvbnQtZmFtaWx5PSJzYW5zLXNlcmlmIiBmb250LXNpemU9IjE0IiBsZW5ndGhBZGp1c3Q9InNwYWNpbmciIHRleHRMZW5ndGg9Ijk4IiB4PSIyNjMuNSIgeT0iMjI4Mi42MDk0Ij4tY3VycmVudFN0YXR1czwvdGV4dD48bGluZSBzdHlsZT0ic3Ryb2tlOiMxODE4MTg7c3Ryb2tlLXdpZHRoOjAuNTsiIHgxPSIyNTguNSIgeDI9IjM4My41IiB5MT0iMjI4OC4zNTk0IiB5Mj0iMjI4OC4zNTk0Ii8+PHRleHQgZmlsbD0iIzAwMDAwMCIgZm9udC1mYW1pbHk9InNhbnMtc2VyaWYiIGZvbnQtc2l6ZT0iMTQiIGxlbmd0aEFkanVzdD0ic3BhY2luZyIgdGV4dExlbmd0aD0iMTAyIiB4PSIyNjMuNSIgeT0iMjMwNS41OTM4Ij4rdmlld3BheW1lbnQoKTwvdGV4dD48dGV4dCBmaWxsPSIjMDAwMDAwIiBmb250LWZhbWlseT0ic2Fucy1zZXJpZiIgZm9udC1zaXplPSIxNCIgbGVuZ3RoQWRqdXN0PSJzcGFjaW5nIiB0ZXh0TGVuZ3RoPSIxMTUiIHg9IjI2My41IiB5PSIyMzIwLjU3ODEiPitjcmVhdGVQYXltZW50KCk8L3RleHQ+PHRleHQgZmlsbD0iIzAwMDAwMCIgZm9udC1mYW1pbHk9InNhbnMtc2VyaWYiIGZvbnQtc2l6ZT0iMTQiIGxlbmd0aEFkanVzdD0ic3BhY2luZyIgdGV4dExlbmd0aD0iMTE1IiB4PSIyNjMuNSIgeT0iMjMzNS41NjI1Ij4rdXBkYXRlUGF5bWVudCgpPC90ZXh0Pjx0ZXh0IGZpbGw9IiMwMDAwMDAiIGZvbnQtZmFtaWx5PSJzYW5zLXNlcmlmIiBmb250LXNpemU9IjE0IiBsZW5ndGhBZGp1c3Q9InNwYWNpbmciIHRleHRMZW5ndGg9IjExNSIgeD0iMjYzLjUiIHk9IjIzNTAuNTQ2OSI+K2RlbGV0ZVBheW1lbnQoKTwvdGV4dD48L2c+PCEtLWNsYXNzIFNjaG9vbEJ1ZGdldC0tPjxnIGlkPSJlbGVtX1NjaG9vbEJ1ZGdldCI+PHJlY3QgY29kZUxpbmU9IjE2NyIgZmlsbD0iI0YxRjFGMSIgaGVpZ2h0PSIxNDUuODc1IiBpZD0iU2Nob29sQnVkZ2V0IiByeD0iMi41IiByeT0iMi41IiBzdHlsZT0ic3Ryb2tlOiMxODE4MTg7c3Ryb2tlLXdpZHRoOjAuNTsiIHdpZHRoPSIxMTkiIHg9IjQ5MS41IiB5PSIxODY5LjUiLz48dGV4dCBmaWxsPSIjMDAwMDAwIiBmb250LWZhbWlseT0ic2Fucy1zZXJpZiIgZm9udC1zaXplPSIxNCIgbGVuZ3RoQWRqdXN0PSJzcGFjaW5nIiB0ZXh0TGVuZ3RoPSI4NCIgeD0iNTA5IiB5PSIxODg3LjczNDQiPlNjaG9vbEJ1ZGdldDwvdGV4dD48bGluZSBzdHlsZT0ic3Ryb2tlOiMxODE4MTg7c3Ryb2tlLXdpZHRoOjAuNTsiIHgxPSI0OTIuNSIgeDI9IjYwOS41IiB5MT0iMTg5NC40ODQ0IiB5Mj0iMTg5NC40ODQ0Ii8+PHRleHQgZmlsbD0iIzAwMDAwMCIgZm9udC1mYW1pbHk9InNhbnMtc2VyaWYiIGZvbnQtc2l6ZT0iMTQiIGxlbmd0aEFkanVzdD0ic3BhY2luZyIgdGV4dExlbmd0aD0iNTAiIHg9IjQ5Ny41IiB5PSIxOTExLjcxODgiPi1pbmNvbWU8L3RleHQ+PHRleHQgZmlsbD0iIzAwMDAwMCIgZm9udC1mYW1pbHk9InNhbnMtc2VyaWYiIGZvbnQtc2l6ZT0iMTQiIGxlbmd0aEFkanVzdD0ic3BhY2luZyIgdGV4dExlbmd0aD0iNTYiIHg9IjQ5Ny41IiB5PSIxOTI2LjcwMzEiPi1leHBlbnNlPC90ZXh0Pjx0ZXh0IGZpbGw9IiMwMDAwMDAiIGZvbnQtZmFtaWx5PSJzYW5zLXNlcmlmIiBmb250LXNpemU9IjE0IiBsZW5ndGhBZGp1c3Q9InNwYWNpbmciIHRleHRMZW5ndGg9IjcwIiB4PSI0OTcuNSIgeT0iMTk0MS42ODc1Ij4tZG9uYXRpb25zPC90ZXh0Pjx0ZXh0IGZpbGw9IiMwMDAwMDAiIGZvbnQtZmFtaWx5PSJzYW5zLXNlcmlmIiBmb250LXNpemU9IjE0IiBsZW5ndGhBZGp1c3Q9InNwYWNpbmciIHRleHRMZW5ndGg9Ijk5IiB4PSI0OTcuNSIgeT0iMTk1Ni42NzE5Ij4tb3RoZXJQYXltZW50czwvdGV4dD48bGluZSBzdHlsZT0ic3Ryb2tlOiMxODE4MTg7c3Ryb2tlLXdpZHRoOjAuNTsiIHgxPSI0OTIuNSIgeDI9IjYwOS41IiB5MT0iMTk2Mi40MjE5IiB5Mj0iMTk2Mi40MjE5Ii8+PHRleHQgZmlsbD0iIzAwMDAwMCIgZm9udC1mYW1pbHk9InNhbnMtc2VyaWYiIGZvbnQtc2l6ZT0iMTQiIGxlbmd0aEFkanVzdD0ic3BhY2luZyIgdGV4dExlbmd0aD0iOTQiIHg9IjQ5Ny41IiB5PSIxOTc5LjY1NjMiPit2aWV3QnVkZ2V0KCk8L3RleHQ+PHRleHQgZmlsbD0iIzAwMDAwMCIgZm9udC1mYW1pbHk9InNhbnMtc2VyaWYiIGZvbnQtc2l6ZT0iMTQiIGxlbmd0aEFkanVzdD0ic3BhY2luZyIgdGV4dExlbmd0aD0iMTA3IiB4PSI0OTcuNSIgeT0iMTk5NC42NDA2Ij4rY3JlYXRlQnVkZ2V0KCk8L3RleHQ+PHRleHQgZmlsbD0iIzAwMDAwMCIgZm9udC1mYW1pbHk9InNhbnMtc2VyaWYiIGZvbnQtc2l6ZT0iMTQiIGxlbmd0aEFkanVzdD0ic3BhY2luZyIgdGV4dExlbmd0aD0iMTA3IiB4PSI0OTcuNSIgeT0iMjAwOS42MjUiPit1cGRhdGVCdWRnZXQoKTwvdGV4dD48L2c+PCEtLWNsYXNzIEV4YW0tLT48ZyBpZD0iZWxlbV9FeGFtIj48cmVjdCBjb2RlTGluZT0iMTc3IiBmaWxsPSIjRjFGMUYxIiBoZWlnaHQ9IjIwNS44MTI1IiBpZD0iRXhhbSIgcng9IjIuNSIgcnk9IjIuNSIgc3R5bGU9InN0cm9rZTojMTgxODE4O3N0cm9rZS13aWR0aDowLjU7IiB3aWR0aD0iMTA2IiB4PSI0NSIgeT0iMjE0MyIvPjx0ZXh0IGZpbGw9IiMwMDAwMDAiIGZvbnQtZmFtaWx5PSJzYW5zLXNlcmlmIiBmb250LXNpemU9IjE0IiBsZW5ndGhBZGp1c3Q9InNwYWNpbmciIHRleHRMZW5ndGg9IjI5IiB4PSI4My41IiB5PSIyMTYxLjIzNDQiPkV4YW08L3RleHQ+PGxpbmUgc3R5bGU9InN0cm9rZTojMTgxODE4O3N0cm9rZS13aWR0aDowLjU7IiB4MT0iNDYiIHgyPSIxNTAiIHkxPSIyMTY3Ljk4NDQiIHkyPSIyMTY3Ljk4NDQiLz48dGV4dCBmaWxsPSIjMDAwMDAwIiBmb250LWZhbWlseT0ic2Fucy1zZXJpZiIgZm9udC1zaXplPSIxNCIgbGVuZ3RoQWRqdXN0PSJzcGFjaW5nIiB0ZXh0TGVuZ3RoPSIyMSIgeD0iNTEiIHk9IjIxODUuMjE4OCI+LWlkPC90ZXh0Pjx0ZXh0IGZpbGw9IiMwMDAwMDAiIGZvbnQtZmFtaWx5PSJzYW5zLXNlcmlmIiBmb250LXNpemU9IjE0IiBsZW5ndGhBZGp1c3Q9InNwYWNpbmciIHRleHRMZW5ndGg9IjM2IiB4PSI1MSIgeT0iMjIwMC4yMDMxIj4tbmFtZTwvdGV4dD48dGV4dCBmaWxsPSIjMDAwMDAwIiBmb250LWZhbWlseT0ic2Fucy1zZXJpZiIgZm9udC1zaXplPSIxNCIgbGVuZ3RoQWRqdXN0PSJzcGFjaW5nIiB0ZXh0TGVuZ3RoPSIzNSIgeD0iNTEiIHk9IjIyMTUuMTg3NSI+LXR5cGU8L3RleHQ+PHRleHQgZmlsbD0iIzAwMDAwMCIgZm9udC1mYW1pbHk9InNhbnMtc2VyaWYiIGZvbnQtc2l6ZT0iMTQiIGxlbmd0aEFkanVzdD0ic3BhY2luZyIgdGV4dExlbmd0aD0iODQiIHg9IjUxIiB5PSIyMjMwLjE3MTkiPi1kZXNjcmlwdGlvbjwvdGV4dD48dGV4dCBmaWxsPSIjMDAwMDAwIiBmb250LWZhbWlseT0ic2Fucy1zZXJpZiIgZm9udC1zaXplPSIxNCIgbGVuZ3RoQWRqdXN0PSJzcGFjaW5nIiB0ZXh0TGVuZ3RoPSIzNSIgeD0iNTEiIHk9IjIyNDUuMTU2MyI+LWRhdGU8L3RleHQ+PHRleHQgZmlsbD0iIzAwMDAwMCIgZm9udC1mYW1pbHk9InNhbnMtc2VyaWYiIGZvbnQtc2l6ZT0iMTQiIGxlbmd0aEFkanVzdD0ic3BhY2luZyIgdGV4dExlbmd0aD0iNjMiIHg9IjUxIiB5PSIyMjYwLjE0MDYiPi1kdXJhdGlvbjwvdGV4dD48dGV4dCBmaWxsPSIjMDAwMDAwIiBmb250LWZhbWlseT0ic2Fucy1zZXJpZiIgZm9udC1zaXplPSIxNCIgbGVuZ3RoQWRqdXN0PSJzcGFjaW5nIiB0ZXh0TGVuZ3RoPSI1MSIgeD0iNTEiIHk9IjIyNzUuMTI1Ij4tbWVkaXVtPC90ZXh0PjxsaW5lIHN0eWxlPSJzdHJva2U6IzE4MTgxODtzdHJva2Utd2lkdGg6MC41OyIgeDE9IjQ2IiB4Mj0iMTUwIiB5MT0iMjI4MC44NzUiIHkyPSIyMjgwLjg3NSIvPjx0ZXh0IGZpbGw9IiMwMDAwMDAiIGZvbnQtZmFtaWx5PSJzYW5zLXNlcmlmIiBmb250LXNpemU9IjE0IiBsZW5ndGhBZGp1c3Q9InNwYWNpbmciIHRleHRMZW5ndGg9Ijg4IiB4PSI1MSIgeT0iMjI5OC4xMDk0Ij4rdmlld0V4YW1zKCk8L3RleHQ+PHRleHQgZmlsbD0iIzAwMDAwMCIgZm9udC1mYW1pbHk9InNhbnMtc2VyaWYiIGZvbnQtc2l6ZT0iMTQiIGxlbmd0aEFkanVzdD0ic3BhY2luZyIgdGV4dExlbmd0aD0iOTQiIHg9IjUxIiB5PSIyMzEzLjA5MzgiPitjcmVhdGVFeGFtKCk8L3RleHQ+PHRleHQgZmlsbD0iIzAwMDAwMCIgZm9udC1mYW1pbHk9InNhbnMtc2VyaWYiIGZvbnQtc2l6ZT0iMTQiIGxlbmd0aEFkanVzdD0ic3BhY2luZyIgdGV4dExlbmd0aD0iOTQiIHg9IjUxIiB5PSIyMzI4LjA3ODEiPit1cGRhdGVFeGFtKCk8L3RleHQ+PHRleHQgZmlsbD0iIzAwMDAwMCIgZm9udC1mYW1pbHk9InNhbnMtc2VyaWYiIGZvbnQtc2l6ZT0iMTQiIGxlbmd0aEFkanVzdD0ic3BhY2luZyIgdGV4dExlbmd0aD0iOTQiIHg9IjUxIiB5PSIyMzQzLjA2MjUiPitkZWxldGVFeGFtKCk8L3RleHQ+PC9nPjwhLS1jbGFzcyBSZXN1bHQtLT48ZyBpZD0iZWxlbV9SZXN1bHQiPjxyZWN0IGNvZGVMaW5lPSIxOTEiIGZpbGw9IiNGMUYxRjEiIGhlaWdodD0iMTkwLjgyODEiIGlkPSJSZXN1bHQiIHJ4PSIyLjUiIHJ5PSIyLjUiIHN0eWxlPSJzdHJva2U6IzE4MTgxODtzdHJva2Utd2lkdGg6MC41OyIgd2lkdGg9IjE3NSIgeD0iMTUxLjUiIHk9IjI0NDYuNSIvPjx0ZXh0IGZpbGw9IiMwMDAwMDAiIGZvbnQtZmFtaWx5PSJzYW5zLXNlcmlmIiBmb250LXNpemU9IjE0IiBsZW5ndGhBZGp1c3Q9InNwYWNpbmciIHRleHRMZW5ndGg9IjQyIiB4PSIyMTgiIHk9IjI0NjQuNzM0NCI+UmVzdWx0PC90ZXh0PjxsaW5lIHN0eWxlPSJzdHJva2U6IzE4MTgxODtzdHJva2Utd2lkdGg6MC41OyIgeDE9IjE1Mi41IiB4Mj0iMzI1LjUiIHkxPSIyNDcxLjQ4NDQiIHkyPSIyNDcxLjQ4NDQiLz48dGV4dCBmaWxsPSIjMDAwMDAwIiBmb250LWZhbWlseT0ic2Fucy1zZXJpZiIgZm9udC1zaXplPSIxNCIgbGVuZ3RoQWRqdXN0PSJzcGFjaW5nIiB0ZXh0TGVuZ3RoPSIyMSIgeD0iMTU3LjUiIHk9IjI0ODguNzE4OCI+LWlkPC90ZXh0Pjx0ZXh0IGZpbGw9IiMwMDAwMDAiIGZvbnQtZmFtaWx5PSJzYW5zLXNlcmlmIiBmb250LXNpemU9IjE0IiBsZW5ndGhBZGp1c3Q9InNwYWNpbmciIHRleHRMZW5ndGg9Ijg1IiB4PSIxNTcuNSIgeT0iMjUwMy43MDMxIj4tc3R1ZGVudE5hbWU8L3RleHQ+PHRleHQgZmlsbD0iIzAwMDAwMCIgZm9udC1mYW1pbHk9InNhbnMtc2VyaWYiIGZvbnQtc2l6ZT0iMTQiIGxlbmd0aEFkanVzdD0ic3BhY2luZyIgdGV4dExlbmd0aD0iNDMiIHg9IjE1Ny41IiB5PSIyNTE4LjY4NzUiPi1tYXJrczwvdGV4dD48dGV4dCBmaWxsPSIjMDAwMDAwIiBmb250LWZhbWlseT0ic2Fucy1zZXJpZiIgZm9udC1zaXplPSIxNCIgbGVuZ3RoQWRqdXN0PSJzcGFjaW5nIiB0ZXh0TGVuZ3RoPSI0MiIgeD0iMTU3LjUiIHk9IjI1MzMuNjcxOSI+LWdyYWRlPC90ZXh0Pjx0ZXh0IGZpbGw9IiMwMDAwMDAiIGZvbnQtZmFtaWx5PSJzYW5zLXNlcmlmIiBmb250LXNpemU9IjE0IiBsZW5ndGhBZGp1c3Q9InNwYWNpbmciIHRleHRMZW5ndGg9Ijc3IiB4PSIxNTcuNSIgeT0iMjU0OC42NTYzIj4tdXBkYXRlRGF0ZTwvdGV4dD48bGluZSBzdHlsZT0ic3Ryb2tlOiMxODE4MTg7c3Ryb2tlLXdpZHRoOjAuNTsiIHgxPSIxNTIuNSIgeDI9IjMyNS41IiB5MT0iMjU1NC40MDYzIiB5Mj0iMjU1NC40MDYzIi8+PHRleHQgZmlsbD0iIzAwMDAwMCIgZm9udC1mYW1pbHk9InNhbnMtc2VyaWYiIGZvbnQtc2l6ZT0iMTQiIGxlbmd0aEFkanVzdD0ic3BhY2luZyIgdGV4dExlbmd0aD0iOTQiIHg9IjE1Ny41IiB5PSIyNTcxLjY0MDYiPit2aWV3UmVzdWx0KCk8L3RleHQ+PHRleHQgZmlsbD0iIzAwMDAwMCIgZm9udC1mYW1pbHk9InNhbnMtc2VyaWYiIGZvbnQtc2l6ZT0iMTQiIGxlbmd0aEFkanVzdD0ic3BhY2luZyIgdGV4dExlbmd0aD0iMTA3IiB4PSIxNTcuNSIgeT0iMjU4Ni42MjUiPitjcmVhdGVSZXN1bHQoKTwvdGV4dD48dGV4dCBmaWxsPSIjMDAwMDAwIiBmb250LWZhbWlseT0ic2Fucy1zZXJpZiIgZm9udC1zaXplPSIxNCIgbGVuZ3RoQWRqdXN0PSJzcGFjaW5nIiB0ZXh0TGVuZ3RoPSIxMDciIHg9IjE1Ny41IiB5PSIyNjAxLjYwOTQiPit1cGRhdGVSZXN1bHQoKTwvdGV4dD48dGV4dCBmaWxsPSIjMDAwMDAwIiBmb250LWZhbWlseT0ic2Fucy1zZXJpZiIgZm9udC1zaXplPSIxNCIgbGVuZ3RoQWRqdXN0PSJzcGFjaW5nIiB0ZXh0TGVuZ3RoPSIxMDciIHg9IjE1Ny41IiB5PSIyNjE2LjU5MzgiPitkZWxldGVSZXN1bHQoKTwvdGV4dD48dGV4dCBmaWxsPSIjMDAwMDAwIiBmb250LWZhbWlseT0ic2Fucy1zZXJpZiIgZm9udC1zaXplPSIxNCIgbGVuZ3RoQWRqdXN0PSJzcGFjaW5nIiB0ZXh0TGVuZ3RoPSIxNjMiIHg9IjE1Ny41IiB5PSIyNjMxLjU3ODEiPithcHBseUZvclJlY29ycmVjdGlvbigpPC90ZXh0PjwvZz48IS0tY2xhc3MgQXNzZXNzbWVudC0tPjxnIGlkPSJlbGVtX0Fzc2Vzc21lbnQiPjxyZWN0IGNvZGVMaW5lPSIyMDQiIGZpbGw9IiNGMUYxRjEiIGhlaWdodD0iMjM1Ljc4MTMiIGlkPSJBc3Nlc3NtZW50IiByeD0iMi41IiByeT0iMi41IiBzdHlsZT0ic3Ryb2tlOiMxODE4MTg7c3Ryb2tlLXdpZHRoOjAuNTsiIHdpZHRoPSIxNDkiIHg9IjYyNi41IiB5PSIyMTI4Ii8+PHRleHQgZmlsbD0iIzAwMDAwMCIgZm9udC1mYW1pbHk9InNhbnMtc2VyaWYiIGZvbnQtc2l6ZT0iMTQiIGxlbmd0aEFkanVzdD0ic3BhY2luZyIgdGV4dExlbmd0aD0iNzEiIHg9IjY2NS41IiB5PSIyMTQ2LjIzNDQiPkFzc2Vzc21lbnQ8L3RleHQ+PGxpbmUgc3R5bGU9InN0cm9rZTojMTgxODE4O3N0cm9rZS13aWR0aDowLjU7IiB4MT0iNjI3LjUiIHgyPSI3NzQuNSIgeTE9IjIxNTIuOTg0NCIgeTI9IjIxNTIuOTg0NCIvPjx0ZXh0IGZpbGw9IiMwMDAwMDAiIGZvbnQtZmFtaWx5PSJzYW5zLXNlcmlmIiBmb250LXNpemU9IjE0IiBsZW5ndGhBZGp1c3Q9InNwYWNpbmciIHRleHRMZW5ndGg9IjIxIiB4PSI2MzIuNSIgeT0iMjE3MC4yMTg4Ij4taWQ8L3RleHQ+PHRleHQgZmlsbD0iIzAwMDAwMCIgZm9udC1mYW1pbHk9InNhbnMtc2VyaWYiIGZvbnQtc2l6ZT0iMTQiIGxlbmd0aEFkanVzdD0ic3BhY2luZyIgdGV4dExlbmd0aD0iNDIiIHg9IjYzMi41IiB5PSIyMTg1LjIwMzEiPi10aXRsZTwvdGV4dD48dGV4dCBmaWxsPSIjMDAwMDAwIiBmb250LWZhbWlseT0ic2Fucy1zZXJpZiIgZm9udC1zaXplPSIxNCIgbGVuZ3RoQWRqdXN0PSJzcGFjaW5nIiB0ZXh0TGVuZ3RoPSI4NCIgeD0iNjMyLjUiIHk9IjIyMDAuMTg3NSI+LWRlc2NyaXB0aW9uPC90ZXh0Pjx0ZXh0IGZpbGw9IiMwMDAwMDAiIGZvbnQtZmFtaWx5PSJzYW5zLXNlcmlmIiBmb250LXNpemU9IjE0IiBsZW5ndGhBZGp1c3Q9InNwYWNpbmciIHRleHRMZW5ndGg9Ijk4IiB4PSI2MzIuNSIgeT0iMjIxNS4xNzE5Ij4tYXR0YWNoZWRGaWxlczwvdGV4dD48dGV4dCBmaWxsPSIjMDAwMDAwIiBmb250LWZhbWlseT0ic2Fucy1zZXJpZiIgZm9udC1zaXplPSIxNCIgbGVuZ3RoQWRqdXN0PSJzcGFjaW5nIiB0ZXh0TGVuZ3RoPSI1NiIgeD0iNjMyLjUiIHk9IjIyMzAuMTU2MyI+LWR1ZURhdGU8L3RleHQ+PHRleHQgZmlsbD0iIzAwMDAwMCIgZm9udC1mYW1pbHk9InNhbnMtc2VyaWYiIGZvbnQtc2l6ZT0iMTQiIGxlbmd0aEFkanVzdD0ic3BhY2luZyIgdGV4dExlbmd0aD0iNTEiIHg9IjYzMi41IiB5PSIyMjQ1LjE0MDYiPi1tZWRpdW08L3RleHQ+PGxpbmUgc3R5bGU9InN0cm9rZTojMTgxODE4O3N0cm9rZS13aWR0aDowLjU7IiB4MT0iNjI3LjUiIHgyPSI3NzQuNSIgeTE9IjIyNTAuODkwNiIgeTI9IjIyNTAuODkwNiIvPjx0ZXh0IGZpbGw9IiMwMDAwMDAiIGZvbnQtZmFtaWx5PSJzYW5zLXNlcmlmIiBmb250LXNpemU9IjE0IiBsZW5ndGhBZGp1c3Q9InNwYWNpbmciIHRleHRMZW5ndGg9IjEyMyIgeD0iNjMyLjUiIHk9IjIyNjguMTI1Ij4rdmlld0Fzc2Vzc21lbnQoKTwvdGV4dD48dGV4dCBmaWxsPSIjMDAwMDAwIiBmb250LWZhbWlseT0ic2Fucy1zZXJpZiIgZm9udC1zaXplPSIxNCIgbGVuZ3RoQWRqdXN0PSJzcGFjaW5nIiB0ZXh0TGVuZ3RoPSIxMjkiIHg9IjYzMi41IiB5PSIyMjgzLjEwOTQiPitjcmVhdEFzc2Vzc21lbnQoKTwvdGV4dD48dGV4dCBmaWxsPSIjMDAwMDAwIiBmb250LWZhbWlseT0ic2Fucy1zZXJpZiIgZm9udC1zaXplPSIxNCIgbGVuZ3RoQWRqdXN0PSJzcGFjaW5nIiB0ZXh0TGVuZ3RoPSIxMzYiIHg9IjYzMi41IiB5PSIyMjk4LjA5MzgiPit1cGRhdGVBc3Nlc3NtZW50KCk8L3RleHQ+PHRleHQgZmlsbD0iIzAwMDAwMCIgZm9udC1mYW1pbHk9InNhbnMtc2VyaWYiIGZvbnQtc2l6ZT0iMTQiIGxlbmd0aEFkanVzdD0ic3BhY2luZyIgdGV4dExlbmd0aD0iMTM2IiB4PSI2MzIuNSIgeT0iMjMxMy4wNzgxIj4rZGVsZXRlQXNzZXNzbWVudCgpPC90ZXh0Pjx0ZXh0IGZpbGw9IiMwMDAwMDAiIGZvbnQtZmFtaWx5PSJzYW5zLXNlcmlmIiBmb250LXNpemU9IjE0IiBsZW5ndGhBZGp1c3Q9InNwYWNpbmciIHRleHRMZW5ndGg9IjEyOSIgeD0iNjMyLjUiIHk9IjIzMjguMDYyNSI+K2dyYWRlQXNzZXNzbWVudCgpPC90ZXh0Pjx0ZXh0IGZpbGw9IiMwMDAwMDAiIGZvbnQtZmFtaWx5PSJzYW5zLXNlcmlmIiBmb250LXNpemU9IjE0IiBsZW5ndGhBZGp1c3Q9InNwYWNpbmciIHRleHRMZW5ndGg9IjEzNyIgeD0iNjMyLjUiIHk9IjIzNDMuMDQ2OSI+K3N1Ym1pdFN1Ym1pc3Npb24oKTwvdGV4dD48dGV4dCBmaWxsPSIjMDAwMDAwIiBmb250LWZhbWlseT0ic2Fucy1zZXJpZiIgZm9udC1zaXplPSIxNCIgbGVuZ3RoQWRqdXN0PSJzcGFjaW5nIiB0ZXh0TGVuZ3RoPSIxMzciIHg9IjYzMi41IiB5PSIyMzU4LjAzMTMiPittYW5hZ2VTdWJtaXNzaW9uKCk8L3RleHQ+PC9nPjwhLS1jbGFzcyBTdWJtaXNzaW9uLS0+PGcgaWQ9ImVsZW1fU3VibWlzc2lvbiI+PHJlY3QgY29kZUxpbmU9IjIyMCIgZmlsbD0iI0YxRjFGMSIgaGVpZ2h0PSIyMzUuNzgxMyIgaWQ9IlN1Ym1pc3Npb24iIHJ4PSIyLjUiIHJ5PSIyLjUiIHN0eWxlPSJzdHJva2U6IzE4MTgxODtzdHJva2Utd2lkdGg6MC41OyIgd2lkdGg9IjE0OCIgeD0iNjkxIiB5PSIyNDI0Ii8+PHRleHQgZmlsbD0iIzAwMDAwMCIgZm9udC1mYW1pbHk9InNhbnMtc2VyaWYiIGZvbnQtc2l6ZT0iMTQiIGxlbmd0aEFkanVzdD0ic3BhY2luZyIgdGV4dExlbmd0aD0iNzEiIHg9IjcyOS41IiB5PSIyNDQyLjIzNDQiPlN1Ym1pc3Npb248L3RleHQ+PGxpbmUgc3R5bGU9InN0cm9rZTojMTgxODE4O3N0cm9rZS13aWR0aDowLjU7IiB4MT0iNjkyIiB4Mj0iODM4IiB5MT0iMjQ0OC45ODQ0IiB5Mj0iMjQ0OC45ODQ0Ii8+PHRleHQgZmlsbD0iIzAwMDAwMCIgZm9udC1mYW1pbHk9InNhbnMtc2VyaWYiIGZvbnQtc2l6ZT0iMTQiIGxlbmd0aEFkanVzdD0ic3BhY2luZyIgdGV4dExlbmd0aD0iMjEiIHg9IjY5NyIgeT0iMjQ2Ni4yMTg4Ij4taWQ8L3RleHQ+PHRleHQgZmlsbD0iIzAwMDAwMCIgZm9udC1mYW1pbHk9InNhbnMtc2VyaWYiIGZvbnQtc2l6ZT0iMTQiIGxlbmd0aEFkanVzdD0ic3BhY2luZyIgdGV4dExlbmd0aD0iNTYiIHg9IjY5NyIgeT0iMjQ4MS4yMDMxIj4tY29udGVudDwvdGV4dD48dGV4dCBmaWxsPSIjMDAwMDAwIiBmb250LWZhbWlseT0ic2Fucy1zZXJpZiIgZm9udC1zaXplPSIxNCIgbGVuZ3RoQWRqdXN0PSJzcGFjaW5nIiB0ZXh0TGVuZ3RoPSI5OCIgeD0iNjk3IiB5PSIyNDk2LjE4NzUiPi1hdHRhY2hlZEZpbGVzPC90ZXh0Pjx0ZXh0IGZpbGw9IiMwMDAwMDAiIGZvbnQtZmFtaWx5PSJzYW5zLXNlcmlmIiBmb250LXNpemU9IjE0IiBsZW5ndGhBZGp1c3Q9InNwYWNpbmciIHRleHRMZW5ndGg9IjEwNiIgeD0iNjk3IiB5PSIyNTExLjE3MTkiPi1zdWJtaXNzaW9uRGF0ZTwvdGV4dD48dGV4dCBmaWxsPSIjMDAwMDAwIiBmb250LWZhbWlseT0ic2Fucy1zZXJpZiIgZm9udC1zaXplPSIxNCIgbGVuZ3RoQWRqdXN0PSJzcGFjaW5nIiB0ZXh0TGVuZ3RoPSIxMDciIHg9IjY5NyIgeT0iMjUyNi4xNTYzIj4tc3VibWlzc2lvblRpbWU8L3RleHQ+PHRleHQgZmlsbD0iIzAwMDAwMCIgZm9udC1mYW1pbHk9InNhbnMtc2VyaWYiIGZvbnQtc2l6ZT0iMTQiIGxlbmd0aEFkanVzdD0ic3BhY2luZyIgdGV4dExlbmd0aD0iNDMiIHg9IjY5NyIgeT0iMjU0MS4xNDA2Ij4tbWFya3M8L3RleHQ+PHRleHQgZmlsbD0iIzAwMDAwMCIgZm9udC1mYW1pbHk9InNhbnMtc2VyaWYiIGZvbnQtc2l6ZT0iMTQiIGxlbmd0aEFkanVzdD0ic3BhY2luZyIgdGV4dExlbmd0aD0iNDIiIHg9IjY5NyIgeT0iMjU1Ni4xMjUiPi1ncmFkZTwvdGV4dD48bGluZSBzdHlsZT0ic3Ryb2tlOiMxODE4MTg7c3Ryb2tlLXdpZHRoOjAuNTsiIHgxPSI2OTIiIHgyPSI4MzgiIHkxPSIyNTYxLjg3NSIgeTI9IjI1NjEuODc1Ii8+PHRleHQgZmlsbD0iIzAwMDAwMCIgZm9udC1mYW1pbHk9InNhbnMtc2VyaWYiIGZvbnQtc2l6ZT0iMTQiIGxlbmd0aEFkanVzdD0ic3BhY2luZyIgdGV4dExlbmd0aD0iMTIzIiB4PSI2OTciIHk9IjI1NzkuMTA5NCI+K3ZpZXdTdWJtaXNzaW9uKCk8L3RleHQ+PHRleHQgZmlsbD0iIzAwMDAwMCIgZm9udC1mYW1pbHk9InNhbnMtc2VyaWYiIGZvbnQtc2l6ZT0iMTQiIGxlbmd0aEFkanVzdD0ic3BhY2luZyIgdGV4dExlbmd0aD0iMTM2IiB4PSI2OTciIHk9IjI1OTQuMDkzOCI+K2NyZWF0ZVN1Ym1pc3Npb24oKTwvdGV4dD48dGV4dCBmaWxsPSIjMDAwMDAwIiBmb250LWZhbWlseT0ic2Fucy1zZXJpZiIgZm9udC1zaXplPSIxNCIgbGVuZ3RoQWRqdXN0PSJzcGFjaW5nIiB0ZXh0TGVuZ3RoPSIxMzYiIHg9IjY5NyIgeT0iMjYwOS4wNzgxIj4rdXBkYXRlU3VibWlzc2lvbigpPC90ZXh0Pjx0ZXh0IGZpbGw9IiMwMDAwMDAiIGZvbnQtZmFtaWx5PSJzYW5zLXNlcmlmIiBmb250LXNpemU9IjE0IiBsZW5ndGhBZGp1c3Q9InNwYWNpbmciIHRleHRMZW5ndGg9IjEzNiIgeD0iNjk3IiB5PSIyNjI0LjA2MjUiPitkZWxldGVTdWJtaXNzaW9uKCk8L3RleHQ+PHRleHQgZmlsbD0iIzAwMDAwMCIgZm9udC1mYW1pbHk9InNhbnMtc2VyaWYiIGZvbnQtc2l6ZT0iMTQiIGxlbmd0aEFkanVzdD0ic3BhY2luZyIgdGV4dExlbmd0aD0iMTI5IiB4PSI2OTciIHk9IjI2MzkuMDQ2OSI+K2dyYWRlU3VibWlzc2lvbigpPC90ZXh0Pjx0ZXh0IGZpbGw9IiMwMDAwMDAiIGZvbnQtZmFtaWx5PSJzYW5zLXNlcmlmIiBmb250LXNpemU9IjE0IiBsZW5ndGhBZGp1c3Q9InNwYWNpbmciIHRleHRMZW5ndGg9IjEyMiIgeD0iNjk3IiB5PSIyNjU0LjAzMTMiPitzb3J0U3VibWlzc2lvbigpPC90ZXh0PjwvZz48IS0tY2xhc3MgU3ViamVjdC0tPjxnIGlkPSJlbGVtX1N1YmplY3QiPjxyZWN0IGNvZGVMaW5lPSIyMzYiIGZpbGw9IiNGMUYxRjEiIGhlaWdodD0iMjA1LjgxMjUiIGlkPSJTdWJqZWN0IiByeD0iMi41IiByeT0iMi41IiBzdHlsZT0ic3Ryb2tlOiMxODE4MTg7c3Ryb2tlLXdpZHRoOjAuNTsiIHdpZHRoPSIxMjciIHg9IjI3NC41IiB5PSIyNzIwIi8+PHRleHQgZmlsbD0iIzAwMDAwMCIgZm9udC1mYW1pbHk9InNhbnMtc2VyaWYiIGZvbnQtc2l6ZT0iMTQiIGxlbmd0aEFkanVzdD0ic3BhY2luZyIgdGV4dExlbmd0aD0iNDkiIHg9IjMxMy41IiB5PSIyNzM4LjIzNDQiPlN1YmplY3Q8L3RleHQ+PGxpbmUgc3R5bGU9InN0cm9rZTojMTgxODE4O3N0cm9rZS13aWR0aDowLjU7IiB4MT0iMjc1LjUiIHgyPSI0MDAuNSIgeTE9IjI3NDQuOTg0NCIgeTI9IjI3NDQuOTg0NCIvPjx0ZXh0IGZpbGw9IiMwMDAwMDAiIGZvbnQtZmFtaWx5PSJzYW5zLXNlcmlmIiBmb250LXNpemU9IjE0IiBsZW5ndGhBZGp1c3Q9InNwYWNpbmciIHRleHRMZW5ndGg9Ijg1IiB4PSIyODAuNSIgeT0iMjc2Mi4yMTg4Ij4tc3ViamVjdE5hbWU8L3RleHQ+PHRleHQgZmlsbD0iIzAwMDAwMCIgZm9udC1mYW1pbHk9InNhbnMtc2VyaWYiIGZvbnQtc2l6ZT0iMTQiIGxlbmd0aEFkanVzdD0ic3BhY2luZyIgdGV4dExlbmd0aD0iMTA1IiB4PSIyODAuNSIgeT0iMjc3Ny4yMDMxIj4tc3ViamVjdENvbnRlbnQ8L3RleHQ+PHRleHQgZmlsbD0iIzAwMDAwMCIgZm9udC1mYW1pbHk9InNhbnMtc2VyaWYiIGZvbnQtc2l6ZT0iMTQiIGxlbmd0aEFkanVzdD0ic3BhY2luZyIgdGV4dExlbmd0aD0iOTEiIHg9IjI4MC41IiB5PSIyNzkyLjE4NzUiPi1jcmVkaXRQb2ludHM8L3RleHQ+PHRleHQgZmlsbD0iIzAwMDAwMCIgZm9udC1mYW1pbHk9InNhbnMtc2VyaWYiIGZvbnQtc2l6ZT0iMTQiIGxlbmd0aEFkanVzdD0ic3BhY2luZyIgdGV4dExlbmd0aD0iNDIiIHg9IjI4MC41IiB5PSIyODA3LjE3MTkiPi1ob3VyczwvdGV4dD48dGV4dCBmaWxsPSIjMDAwMDAwIiBmb250LWZhbWlseT0ic2Fucy1zZXJpZiIgZm9udC1zaXplPSIxNCIgbGVuZ3RoQWRqdXN0PSJzcGFjaW5nIiB0ZXh0TGVuZ3RoPSIxMDUiIHg9IjI4MC41IiB5PSIyODIyLjE1NjMiPi1zdWJqZWN0Q29udGVudDwvdGV4dD48bGluZSBzdHlsZT0ic3Ryb2tlOiMxODE4MTg7c3Ryb2tlLXdpZHRoOjAuNTsiIHgxPSIyNzUuNSIgeDI9IjQwMC41IiB5MT0iMjgyNy45MDYzIiB5Mj0iMjgyNy45MDYzIi8+PHRleHQgZmlsbD0iIzAwMDAwMCIgZm9udC1mYW1pbHk9InNhbnMtc2VyaWYiIGZvbnQtc2l6ZT0iMTQiIGxlbmd0aEFkanVzdD0ic3BhY2luZyIgdGV4dExlbmd0aD0iOTMiIHg9IjI4MC41IiB5PSIyODQ1LjE0MDYiPithZGRDb250ZW50KCk8L3RleHQ+PHRleHQgZmlsbD0iIzAwMDAwMCIgZm9udC1mYW1pbHk9InNhbnMtc2VyaWYiIGZvbnQtc2l6ZT0iMTQiIGxlbmd0aEFkanVzdD0ic3BhY2luZyIgdGV4dExlbmd0aD0iMTE1IiB4PSIyODAuNSIgeT0iMjg2MC4xMjUiPityZW1vdmVDb250ZW50KCk8L3RleHQ+PHRleHQgZmlsbD0iIzAwMDAwMCIgZm9udC1mYW1pbHk9InNhbnMtc2VyaWYiIGZvbnQtc2l6ZT0iMTQiIGxlbmd0aEFkanVzdD0ic3BhY2luZyIgdGV4dExlbmd0aD0iMTAxIiB4PSIyODAuNSIgeT0iMjg3NS4xMDk0Ij4rdmlld1N1YmplY3QoKTwvdGV4dD48dGV4dCBmaWxsPSIjMDAwMDAwIiBmb250LWZhbWlseT0ic2Fucy1zZXJpZiIgZm9udC1zaXplPSIxNCIgbGVuZ3RoQWRqdXN0PSJzcGFjaW5nIiB0ZXh0TGVuZ3RoPSIxMTQiIHg9IjI4MC41IiB5PSIyODkwLjA5MzgiPitjcmVhdGVTdWJqZWN0KCk8L3RleHQ+PHRleHQgZmlsbD0iIzAwMDAwMCIgZm9udC1mYW1pbHk9InNhbnMtc2VyaWYiIGZvbnQtc2l6ZT0iMTQiIGxlbmd0aEFkanVzdD0ic3BhY2luZyIgdGV4dExlbmd0aD0iMTE0IiB4PSIyODAuNSIgeT0iMjkwNS4wNzgxIj4rdXBkYXRlU3ViamVjdCgpPC90ZXh0Pjx0ZXh0IGZpbGw9IiMwMDAwMDAiIGZvbnQtZmFtaWx5PSJzYW5zLXNlcmlmIiBmb250LXNpemU9IjE0IiBsZW5ndGhBZGp1c3Q9InNwYWNpbmciIHRleHRMZW5ndGg9IjExNCIgeD0iMjgwLjUiIHk9IjI5MjAuMDYyNSI+K2RlbGV0ZVN1YmplY3QoKTwvdGV4dD48L2c+PCEtLXJldmVyc2UgbGluayBVc2VyIHRvIFN0dWRlbnQtLT48ZyBpZD0ibGlua19Vc2VyX1N0dWRlbnQiPjxwYXRoIGNvZGVMaW5lPSIyNTAiIGQ9Ik00ODguMzgsMjA4IEMzNDcuMzQsMjA4IDg4LjY3LDIwOCA4OC42NywyMDggQzg4LjY3LDIwOCA4OC42NywxNDQ5LjI1IDg4LjY3LDE4MzEuNjkgIiBmaWxsPSJub25lIiBpZD0iVXNlci1iYWNrdG8tU3R1ZGVudCIgc3R5bGU9InN0cm9rZTojMTgxODE4O3N0cm9rZS13aWR0aDoxLjA7Ii8+PHBvbHlnb24gZmlsbD0ibm9uZSIgcG9pbnRzPSI1MDYuMzgsMjA4LDQ4OC4zOCwyMDIsNDg4LjM4LDIxNCw1MDYuMzgsMjA4IiBzdHlsZT0ic3Ryb2tlOiMxODE4MTg7c3Ryb2tlLXdpZHRoOjEuMDsiLz48L2c+PCEtLXJldmVyc2UgbGluayBVc2VyIHRvIFRlYWNoZXItLT48ZyBpZD0ibGlua19Vc2VyX1RlYWNoZXIiPjxwYXRoIGNvZGVMaW5lPSIyNTEiIGQ9Ik01ODcsNDI2LjExIEM1ODcsNDQ2LjQ4IDU4Nyw0NDguNjcgNTg3LDQ2Ny43NCAiIGZpbGw9Im5vbmUiIGlkPSJVc2VyLWJhY2t0by1UZWFjaGVyIiBzdHlsZT0ic3Ryb2tlOiMxODE4MTg7c3Ryb2tlLXdpZHRoOjEuMDsiLz48cG9seWdvbiBmaWxsPSJub25lIiBwb2ludHM9IjU4Nyw0MDguMTEsNTgxLDQyNi4xMSw1OTMsNDI2LjExLDU4Nyw0MDguMTEiIHN0eWxlPSJzdHJva2U6IzE4MTgxODtzdHJva2Utd2lkdGg6MS4wOyIvPjwvZz48IS0tcmV2ZXJzZSBsaW5rIFRlYWNoZXIgdG8gU2VjdGlvbmFsSGVhZC0tPjxnIGlkPSJsaW5rX1RlYWNoZXJfU2VjdGlvbmFsSGVhZCI+PHBhdGggY29kZUxpbmU9IjI1MiIgZD0iTTU1Ni42Nyw3MjIuMjIgQzU1Ni42Nyw3NDIuMiA1NTYuNjcsNzQ0LjYzIDU1Ni42Nyw3NjMuNjggIiBmaWxsPSJub25lIiBpZD0iVGVhY2hlci1iYWNrdG8tU2VjdGlvbmFsSGVhZCIgc3R5bGU9InN0cm9rZTojMTgxODE4O3N0cm9rZS13aWR0aDoxLjA7Ii8+PHBvbHlnb24gZmlsbD0ibm9uZSIgcG9pbnRzPSI1NTYuNjcsNzA0LjIyLDU1MC42Nyw3MjIuMjIsNTYyLjY3LDcyMi4yMiw1NTYuNjcsNzA0LjIyIiBzdHlsZT0ic3Ryb2tlOiMxODE4MTg7c3Ryb2tlLXdpZHRoOjEuMDsiLz48L2c+PCEtLWxpbmsgU2VjdGlvbmFsSGVhZCB0byBUZWFjaGVyLS0+PGcgaWQ9ImxpbmtfU2VjdGlvbmFsSGVhZF9UZWFjaGVyIj48cGF0aCBjb2RlTGluZT0iMjczIiBkPSJNNjE3LjMzLDc2My44IEM2MTcuMzMsNzQ0Ljc0IDYxNy4zMyw3MjQuMyA2MTcuMzMsNzA0LjMgIiBmaWxsPSJub25lIiBpZD0iU2VjdGlvbmFsSGVhZC1UZWFjaGVyIiBzdHlsZT0ic3Ryb2tlOiMxODE4MTg7c3Ryb2tlLXdpZHRoOjEuMDsiLz48dGV4dCBmaWxsPSIjMDAwMDAwIiBmb250LWZhbWlseT0ic2Fucy1zZXJpZiIgZm9udC1zaXplPSIxMyIgbGVuZ3RoQWRqdXN0PSJzcGFjaW5nIiB0ZXh0TGVuZ3RoPSI0MiIgeD0iNTc0LjMzIiB5PSI3MzIuMzM5MSI+TWFuYWdlPC90ZXh0Pjx0ZXh0IGZpbGw9IiMwMDAwMDAiIGZvbnQtZmFtaWx5PSJzYW5zLXNlcmlmIiBmb250LXNpemU9IjEzIiBsZW5ndGhBZGp1c3Q9InNwYWNpbmciIHRleHRMZW5ndGg9IjciIHg9IjYxMi44MDM0IiB5PSI3NTQuNDA4MiI+MTwvdGV4dD48dGV4dCBmaWxsPSIjMDAwMDAwIiBmb250LWZhbWlseT0ic2Fucy1zZXJpZiIgZm9udC1zaXplPSIxMyIgbGVuZ3RoQWRqdXN0PSJzcGFjaW5nIiB0ZXh0TGVuZ3RoPSIyNSIgeD0iNTkzLjQxNjUiIHk9IjcyNC4yMjg2Ij4xLi4qPC90ZXh0PjwvZz48IS0tcmV2ZXJzZSBsaW5rIFNlY3Rpb25hbEhlYWQgdG8gVmljZVByaW5jaXBhbC0tPjxnIGlkPSJsaW5rX1NlY3Rpb25hbEhlYWRfVmljZVByaW5jaXBhbCI+PHBhdGggY29kZUxpbmU9IjI1MyIgZD0iTTU3Ny44Myw5NTguMTMgQzU3Ny44MywxMDA3LjE4IDU3Ny44MywxMDQ4LjQ4IDU3Ny44MywxMDg5Ljc5ICIgZmlsbD0ibm9uZSIgaWQ9IlNlY3Rpb25hbEhlYWQtYmFja3RvLVZpY2VQcmluY2lwYWwiIHN0eWxlPSJzdHJva2U6IzE4MTgxODtzdHJva2Utd2lkdGg6MS4wOyIvPjxwb2x5Z29uIGZpbGw9Im5vbmUiIHBvaW50cz0iNTc3LjgzLDk0MC4xMyw1NzEuODMsOTU4LjEzLDU4My44Myw5NTguMTMsNTc3LjgzLDk0MC4xMyIgc3R5bGU9InN0cm9rZTojMTgxODE4O3N0cm9rZS13aWR0aDoxLjA7Ii8+PC9nPjwhLS1saW5rIFZpY2VQcmluY2lwYWwgdG8gU2VjdGlvbmFsSGVhZC0tPjxnIGlkPSJsaW5rX1ZpY2VQcmluY2lwYWxfU2VjdGlvbmFsSGVhZCI+PHBhdGggY29kZUxpbmU9IjI3MSIgZD0iTTYzNC4xNywxMDg5LjkyIEM2MzQuMTcsMTA0OC42MyA2MzQuMTcsOTg5LjMgNjM0LjE3LDk0MC4yMiAiIGZpbGw9Im5vbmUiIGlkPSJWaWNlUHJpbmNpcGFsLVNlY3Rpb25hbEhlYWQiIHN0eWxlPSJzdHJva2U6IzE4MTgxODtzdHJva2Utd2lkdGg6MS4wOyIvPjx0ZXh0IGZpbGw9IiMwMDAwMDAiIGZvbnQtZmFtaWx5PSJzYW5zLXNlcmlmIiBmb250LXNpemU9IjEzIiBsZW5ndGhBZGp1c3Q9InNwYWNpbmciIHRleHRMZW5ndGg9IjQyIiB4PSI1OTEuMTciIHk9IjEwMTMuMzU5MSI+TWFuYWdlPC90ZXh0Pjx0ZXh0IGZpbGw9IiMwMDAwMDAiIGZvbnQtZmFtaWx5PSJzYW5zLXNlcmlmIiBmb250LXNpemU9IjEzIiBsZW5ndGhBZGp1c3Q9InNwYWNpbmciIHRleHRMZW5ndGg9IjciIHg9IjYzMC45NDc2IiB5PSIxMDgwLjU0NDciPjE8L3RleHQ+PHRleHQgZmlsbD0iIzAwMDAwMCIgZm9udC1mYW1pbHk9InNhbnMtc2VyaWYiIGZvbnQtc2l6ZT0iMTMiIGxlbmd0aEFkanVzdD0ic3BhY2luZyIgdGV4dExlbmd0aD0iMjUiIHg9IjYxMS45MzI4IiB5PSI5NjAuMDk5NyI+MS4uKjwvdGV4dD48L2c+PCEtLXJldmVyc2UgbGluayBWaWNlUHJpbmNpcGFsIHRvIFByaW5jaXBhbC0tPjxnIGlkPSJsaW5rX1ZpY2VQcmluY2lwYWxfUHJpbmNpcGFsIj48cGF0aCBjb2RlTGluZT0iMjU0IiBkPSJNNjA1LjE3LDEyMDkuNDEgQzYwNS4xNywxMjkwLjU4IDYwNS4xNywxNDI5Ljg4IDYwNS4xNywxNTA1Ljg2ICIgZmlsbD0ibm9uZSIgaWQ9IlZpY2VQcmluY2lwYWwtYmFja3RvLVByaW5jaXBhbCIgc3R5bGU9InN0cm9rZTojMTgxODE4O3N0cm9rZS13aWR0aDoxLjA7Ii8+PHBvbHlnb24gZmlsbD0ibm9uZSIgcG9pbnRzPSI2MDUuMTcsMTE5MS40MSw1OTkuMTcsMTIwOS40MSw2MTEuMTcsMTIwOS40MSw2MDUuMTcsMTE5MS40MSIgc3R5bGU9InN0cm9rZTojMTgxODE4O3N0cm9rZS13aWR0aDoxLjA7Ii8+PC9nPjwhLS1saW5rIFByaW5jaXBhbCB0byBWaWNlUHJpbmNpcGFsLS0+PGcgaWQ9ImxpbmtfUHJpbmNpcGFsX1ZpY2VQcmluY2lwYWwiPjxwYXRoIGNvZGVMaW5lPSIyNjkiIGQ9Ik02NDcuODMsMTUwNS42NyBDNjQ3LjgzLDE0MjkuNTkgNjQ3LjgzLDEyNzIuNCA2NDcuODMsMTE5MS4zMyAiIGZpbGw9Im5vbmUiIGlkPSJQcmluY2lwYWwtVmljZVByaW5jaXBhbCIgc3R5bGU9InN0cm9rZTojMTgxODE4O3N0cm9rZS13aWR0aDoxLjA7Ii8+PHRleHQgZmlsbD0iIzAwMDAwMCIgZm9udC1mYW1pbHk9InNhbnMtc2VyaWYiIGZvbnQtc2l6ZT0iMTMiIGxlbmd0aEFkanVzdD0ic3BhY2luZyIgdGV4dExlbmd0aD0iNDIiIHg9IjYwNC44MyIgeT0iMTM0Ni43ODkxIj5NYW5hZ2U8L3RleHQ+PHRleHQgZmlsbD0iIzAwMDAwMCIgZm9udC1mYW1pbHk9InNhbnMtc2VyaWYiIGZvbnQtc2l6ZT0iMTMiIGxlbmd0aEFkanVzdD0ic3BhY2luZyIgdGV4dExlbmd0aD0iNyIgeD0iNjQyLjc3NzMiIHk9IjE0OTYuNDc4NSI+MTwvdGV4dD48dGV4dCBmaWxsPSIjMDAwMDAwIiBmb250LWZhbWlseT0ic2Fucy1zZXJpZiIgZm9udC1zaXplPSIxMyIgbGVuZ3RoQWRqdXN0PSJzcGFjaW5nIiB0ZXh0TGVuZ3RoPSIyNSIgeD0iNjI2Ljc3MTIiIHk9IjEyMTEuMzg5NCI+MS4uKjwvdGV4dD48L2c+PCEtLXJldmVyc2UgbGluayBQcmluY2lwYWwgdG8gQWRtaW4tLT48ZyBpZD0ibGlua19QcmluY2lwYWxfQWRtaW4iPjxwYXRoIGNvZGVMaW5lPSIyNTUiIGQ9Ik02NjUsMTYxMC4xMiBDNjY1LDE2ODcuNzUgNjY1LDE4MjUgNjY1LDE4MjUgQzY2NSwxODI1IDc4OS44NywxODI1IDg4MC41OSwxODI1ICIgZmlsbD0ibm9uZSIgaWQ9IlByaW5jaXBhbC1iYWNrdG8tQWRtaW4iIHN0eWxlPSJzdHJva2U6IzE4MTgxODtzdHJva2Utd2lkdGg6MS4wOyIvPjxwb2x5Z29uIGZpbGw9Im5vbmUiIHBvaW50cz0iNjY1LDE1OTIuMTIsNjU5LDE2MTAuMTIsNjcxLDE2MTAuMTIsNjY1LDE1OTIuMTIiIHN0eWxlPSJzdHJva2U6IzE4MTgxODtzdHJva2Utd2lkdGg6MS4wOyIvPjwvZz48IS0tcmV2ZXJzZSBsaW5rIFNlY3Rpb24gdG8gVGVhY2hlci0tPjxnIGlkPSJsaW5rX1NlY3Rpb25fVGVhY2hlciI+PHBhdGggY29kZUxpbmU9IjI1NyIgZD0iTTM4OS41LDk4Ny42OCBDMzg5LjUsODQ0Ljk0IDM4OS41LDY1NyAzODkuNSw2NTcgQzM4OS41LDY1NyA0NDQuMDIsNjU3IDQ5NS43Nyw2NTcgIiBmaWxsPSJub25lIiBpZD0iU2VjdGlvbi1iYWNrdG8tVGVhY2hlciIgc3R5bGU9InN0cm9rZTojMTgxODE4O3N0cm9rZS13aWR0aDoxLjA7Ii8+PHBvbHlnb24gZmlsbD0iIzE4MTgxOCIgcG9pbnRzPSIzODkuNSw5OTkuNjgsMzkzLjUsOTkzLjY4LDM4OS41LDk4Ny42OCwzODUuNSw5OTMuNjgsMzg5LjUsOTk5LjY4IiBzdHlsZT0ic3Ryb2tlOiMxODE4MTg7c3Ryb2tlLXdpZHRoOjEuMDsiLz48dGV4dCBmaWxsPSIjMDAwMDAwIiBmb250LWZhbWlseT0ic2Fucy1zZXJpZiIgZm9udC1zaXplPSIxMyIgbGVuZ3RoQWRqdXN0PSJzcGFjaW5nIiB0ZXh0TGVuZ3RoPSIyMSIgeD0iMzY3LjUiIHk9Ijc3My40OTkxIj5IYXM8L3RleHQ+PHRleHQgZmlsbD0iIzAwMDAwMCIgZm9udC1mYW1pbHk9InNhbnMtc2VyaWYiIGZvbnQtc2l6ZT0iMTMiIGxlbmd0aEFkanVzdD0ic3BhY2luZyIgdGV4dExlbmd0aD0iNyIgeD0iMzgxLjk3OTciIHk9Ijk5MC40ODYyIj4xPC90ZXh0Pjx0ZXh0IGZpbGw9IiMwMDAwMDAiIGZvbnQtZmFtaWx5PSJzYW5zLXNlcmlmIiBmb250LXNpemU9IjEzIiBsZW5ndGhBZGp1c3Q9InNwYWNpbmciIHRleHRMZW5ndGg9IjI1IiB4PSI0NjMuMTUyMyIgeT0iNjYxLjA2NzQiPjEuLio8L3RleHQ+PC9nPjwhLS1yZXZlcnNlIGxpbmsgU2VjdGlvbiB0byBDbGFzcy0tPjxnIGlkPSJsaW5rX1NlY3Rpb25fQ2xhc3MiPjxwYXRoIGNvZGVMaW5lPSIyNTgiIGQ9Ik0zMDksMTI5My4wOCBDMzA5LDEzMTIuNDcgMzA5LDEzMjAuNzEgMzA5LDEzNDAuOTkgIiBmaWxsPSJub25lIiBpZD0iU2VjdGlvbi1iYWNrdG8tQ2xhc3MiIHN0eWxlPSJzdHJva2U6IzE4MTgxODtzdHJva2Utd2lkdGg6MS4wOyIvPjxwb2x5Z29uIGZpbGw9IiMxODE4MTgiIHBvaW50cz0iMzA5LDEyODEuMDgsMzA1LDEyODcuMDgsMzA5LDEyOTMuMDgsMzEzLDEyODcuMDgsMzA5LDEyODEuMDgiIHN0eWxlPSJzdHJva2U6IzE4MTgxODtzdHJva2Utd2lkdGg6MS4wOyIvPjx0ZXh0IGZpbGw9IiMwMDAwMDAiIGZvbnQtZmFtaWx5PSJzYW5zLXNlcmlmIiBmb250LXNpemU9IjEzIiBsZW5ndGhBZGp1c3Q9InNwYWNpbmciIHRleHRMZW5ndGg9IjIxIiB4PSIyODciIHk9IjEzMDkuMzI5MSI+SGFzPC90ZXh0Pjx0ZXh0IGZpbGw9IiMwMDAwMDAiIGZvbnQtZmFtaWx5PSJzYW5zLXNlcmlmIiBmb250LXNpemU9IjEzIiBsZW5ndGhBZGp1c3Q9InNwYWNpbmciIHRleHRMZW5ndGg9IjciIHg9IjI5Ny4zODUyIiB5PSIxMzAwLjk4MzMiPjE8L3RleHQ+PHRleHQgZmlsbD0iIzAwMDAwMCIgZm9udC1mYW1pbHk9InNhbnMtc2VyaWYiIGZvbnQtc2l6ZT0iMTMiIGxlbmd0aEFkanVzdD0ic3BhY2luZyIgdGV4dExlbmd0aD0iMjUiIHg9IjI4Ni44MDU1IiB5PSIxMzMxLjI1NzMiPjEuLio8L3RleHQ+PC9nPjwhLS1yZXZlcnNlIGxpbmsgU2VjdGlvbiB0byBTdWJqZWN0LS0+PGcgaWQ9ImxpbmtfU2VjdGlvbl9TdWJqZWN0Ij48cGF0aCBjb2RlTGluZT0iMjU5IiBkPSJNMzkzLDEyOTMuMDYgQzM5MywxNjIzLjI5IDM5MywyNDMwLjUgMzkzLDI3MTkuODEgIiBmaWxsPSJub25lIiBpZD0iU2VjdGlvbi1iYWNrdG8tU3ViamVjdCIgc3R5bGU9InN0cm9rZTojMTgxODE4O3N0cm9rZS13aWR0aDoxLjA7Ii8+PHBvbHlnb24gZmlsbD0iIzE4MTgxOCIgcG9pbnRzPSIzOTMsMTI4MS4wNiwzODksMTI4Ny4wNiwzOTMsMTI5My4wNiwzOTcsMTI4Ny4wNiwzOTMsMTI4MS4wNiIgc3R5bGU9InN0cm9rZTojMTgxODE4O3N0cm9rZS13aWR0aDoxLjA7Ii8+PHRleHQgZmlsbD0iIzAwMDAwMCIgZm9udC1mYW1pbHk9InNhbnMtc2VyaWYiIGZvbnQtc2l6ZT0iMTMiIGxlbmd0aEFkanVzdD0ic3BhY2luZyIgdGV4dExlbmd0aD0iMjEiIHg9IjM3MSIgeT0iMTk5OC43MTkxIj5IYXM8L3RleHQ+PHRleHQgZmlsbD0iIzAwMDAwMCIgZm9udC1mYW1pbHk9InNhbnMtc2VyaWYiIGZvbnQtc2l6ZT0iMTMiIGxlbmd0aEFkanVzdD0ic3BhY2luZyIgdGV4dExlbmd0aD0iNyIgeD0iMzg1LjcxNjQiIHk9IjEzMDAuOTYyMyI+MTwvdGV4dD48dGV4dCBmaWxsPSIjMDAwMDAwIiBmb250LWZhbWlseT0ic2Fucy1zZXJpZiIgZm9udC1zaXplPSIxMyIgbGVuZ3RoQWRqdXN0PSJzcGFjaW5nIiB0ZXh0TGVuZ3RoPSIyNSIgeD0iMzk4LjM3ODkiIHk9IjI3MTAuNDAyIj4xLi4qPC90ZXh0PjwvZz48IS0tcmV2ZXJzZSBsaW5rIFNlY3Rpb24gdG8gRXhhbS0tPjxnIGlkPSJsaW5rX1NlY3Rpb25fRXhhbSI+PHBhdGggY29kZUxpbmU9IjI2MCIgZD0iTTI5MS44OSwxMTQxIEMxOTEuMTcsMTE0MSA1NSwxMTQxIDU1LDExNDEgQzU1LDExNDEgNTUsMTg2Ny44NCA1NSwyMTQyLjU0ICIgZmlsbD0ibm9uZSIgaWQ9IlNlY3Rpb24tYmFja3RvLUV4YW0iIHN0eWxlPSJzdHJva2U6IzE4MTgxODtzdHJva2Utd2lkdGg6MS4wOyIvPjxwb2x5Z29uIGZpbGw9Im5vbmUiIHBvaW50cz0iMzAzLjg5LDExNDEsMjk3Ljg5LDExMzcsMjkxLjg5LDExNDEsMjk3Ljg5LDExNDUsMzAzLjg5LDExNDEiIHN0eWxlPSJzdHJva2U6IzE4MTgxODtzdHJva2Utd2lkdGg6MS4wOyIvPjx0ZXh0IGZpbGw9IiMwMDAwMDAiIGZvbnQtZmFtaWx5PSJzYW5zLXNlcmlmIiBmb250LXNpemU9IjEzIiBsZW5ndGhBZGp1c3Q9InNwYWNpbmciIHRleHRMZW5ndGg9IjIxIiB4PSIzMyIgeT0iMTUxNS42MTkxIj5IYXM8L3RleHQ+PHRleHQgZmlsbD0iIzAwMDAwMCIgZm9udC1mYW1pbHk9InNhbnMtc2VyaWYiIGZvbnQtc2l6ZT0iMTMiIGxlbmd0aEFkanVzdD0ic3BhY2luZyIgdGV4dExlbmd0aD0iNyIgeD0iMjg5LjA1NTEiIHk9IjExMzkuODQxIj4xPC90ZXh0Pjx0ZXh0IGZpbGw9IiMwMDAwMDAiIGZvbnQtZmFtaWx5PSJzYW5zLXNlcmlmIiBmb250LXNpemU9IjEzIiBsZW5ndGhBZGp1c3Q9InNwYWNpbmciIHRleHRMZW5ndGg9IjI1IiB4PSI1Mi42NjQ4IiB5PSIyMTMzLjQ1MjQiPjEuLio8L3RleHQ+PC9nPjwhLS1yZXZlcnNlIGxpbmsgQ2xhc3MgdG8gU3R1ZGVudC0tPjxnIGlkPSJsaW5rX0NsYXNzX1N0dWRlbnQiPjxwYXRoIGNvZGVMaW5lPSIyNjEiIGQ9Ik0xOTQsMTc2OS4yNyBDMTk0LDE3OTQuOTkgMTk0LDE4MDguNDQgMTk0LDE4MzEuODcgIiBmaWxsPSJub25lIiBpZD0iQ2xhc3MtYmFja3RvLVN0dWRlbnQiIHN0eWxlPSJzdHJva2U6IzE4MTgxODtzdHJva2Utd2lkdGg6MS4wOyIvPjxwb2x5Z29uIGZpbGw9IiMxODE4MTgiIHBvaW50cz0iMTk0LDE3NTcuMjcsMTkwLDE3NjMuMjcsMTk0LDE3NjkuMjcsMTk4LDE3NjMuMjcsMTk0LDE3NTcuMjciIHN0eWxlPSJzdHJva2U6IzE4MTgxODtzdHJva2Utd2lkdGg6MS4wOyIvPjx0ZXh0IGZpbGw9IiMwMDAwMDAiIGZvbnQtZmFtaWx5PSJzYW5zLXNlcmlmIiBmb250LXNpemU9IjEzIiBsZW5ndGhBZGp1c3Q9InNwYWNpbmciIHRleHRMZW5ndGg9IjIxIiB4PSIxNzIiIHk9IjE3OTIuODU5MSI+SGFzPC90ZXh0Pjx0ZXh0IGZpbGw9IiMwMDAwMDAiIGZvbnQtZmFtaWx5PSJzYW5zLXNlcmlmIiBmb250LXNpemU9IjEzIiBsZW5ndGhBZGp1c3Q9InNwYWNpbmciIHRleHRMZW5ndGg9IjciIHg9IjE4NS43MDM5IiB5PSIxNzc2LjYyNzkiPjE8L3RleHQ+PHRleHQgZmlsbD0iIzAwMDAwMCIgZm9udC1mYW1pbHk9InNhbnMtc2VyaWYiIGZvbnQtc2l6ZT0iMTMiIGxlbmd0aEFkanVzdD0ic3BhY2luZyIgdGV4dExlbmd0aD0iMjUiIHg9IjE3MS4zMzUyIiB5PSIxODIyLjIzNDEiPjEuLio8L3RleHQ+PC9nPjwhLS1yZXZlcnNlIGxpbmsgQXNzZXNzbWVudCB0byBTdWJtaXNzaW9uLS0+PGcgaWQ9ImxpbmtfQXNzZXNzbWVudF9TdWJtaXNzaW9uIj48cGF0aCBjb2RlTGluZT0iMjYyIiBkPSJNNzMzLjI1LDIzNzYuMjYgQzczMy4yNSwyMzk1LjkxIDczMy4yNSwyNDA0LjI4IDczMy4yNSwyNDIzLjkyICIgZmlsbD0ibm9uZSIgaWQ9IkFzc2Vzc21lbnQtYmFja3RvLVN1Ym1pc3Npb24iIHN0eWxlPSJzdHJva2U6IzE4MTgxODtzdHJva2Utd2lkdGg6MS4wOyIvPjxwb2x5Z29uIGZpbGw9Im5vbmUiIHBvaW50cz0iNzMzLjI1LDIzNjQuMjYsNzI5LjI1LDIzNzAuMjYsNzMzLjI1LDIzNzYuMjYsNzM3LjI1LDIzNzAuMjYsNzMzLjI1LDIzNjQuMjYiIHN0eWxlPSJzdHJva2U6IzE4MTgxODtzdHJva2Utd2lkdGg6MS4wOyIvPjx0ZXh0IGZpbGw9IiMwMDAwMDAiIGZvbnQtZmFtaWx5PSJzYW5zLXNlcmlmIiBmb250LXNpemU9IjEzIiBsZW5ndGhBZGp1c3Q9InNwYWNpbmciIHRleHRMZW5ndGg9IjIxIiB4PSI3MTEuMjUiIHk9IjIzOTIuMzc5MSI+SGFzPC90ZXh0Pjx0ZXh0IGZpbGw9IiMwMDAwMDAiIGZvbnQtZmFtaWx5PSJzYW5zLXNlcmlmIiBmb250LXNpemU9IjEzIiBsZW5ndGhBZGp1c3Q9InNwYWNpbmciIHRleHRMZW5ndGg9IjciIHg9IjcyOC4wMDIiIHk9IjIzODQuMTg2MSI+MTwvdGV4dD48dGV4dCBmaWxsPSIjMDAwMDAwIiBmb250LWZhbWlseT0ic2Fucy1zZXJpZiIgZm9udC1zaXplPSIxMyIgbGVuZ3RoQWRqdXN0PSJzcGFjaW5nIiB0ZXh0TGVuZ3RoPSIyNSIgeD0iNzA1LjEzODciIHk9IjI0MTQuNDg5NCI+MC4uKjwvdGV4dD48L2c+PCEtLXJldmVyc2UgbGluayBBc3Nlc3NtZW50IHRvIFN1YmplY3QtLT48ZyBpZD0ibGlua19Bc3Nlc3NtZW50X1N1YmplY3QiPjxwYXRoIGNvZGVMaW5lPSIyNjMiIGQ9Ik02MTQuMzEsMjM2MSBDNTI0LjM3LDIzNjEgMzk3LjI1LDIzNjEgMzk3LjI1LDIzNjEgQzM5Ny4yNSwyMzYxIDM5Ny4yNSwyNTgzLjczIDM5Ny4yNSwyNzE5Ljg5ICIgZmlsbD0ibm9uZSIgaWQ9IkFzc2Vzc21lbnQtYmFja3RvLVN1YmplY3QiIHN0eWxlPSJzdHJva2U6IzE4MTgxODtzdHJva2Utd2lkdGg6MS4wOyIvPjxwb2x5Z29uIGZpbGw9IiMxODE4MTgiIHBvaW50cz0iNjI2LjMxLDIzNjEsNjIwLjMxLDIzNTcsNjE0LjMxLDIzNjEsNjIwLjMxLDIzNjUsNjI2LjMxLDIzNjEiIHN0eWxlPSJzdHJva2U6IzE4MTgxODtzdHJva2Utd2lkdGg6MS4wOyIvPjx0ZXh0IGZpbGw9IiMwMDAwMDAiIGZvbnQtZmFtaWx5PSJzYW5zLXNlcmlmIiBmb250LXNpemU9IjEzIiBsZW5ndGhBZGp1c3Q9InNwYWNpbmciIHRleHRMZW5ndGg9IjciIHg9IjYxMS42MTMyIiB5PSIyMzcxLjAyNTMiPjE8L3RleHQ+PHRleHQgZmlsbD0iIzAwMDAwMCIgZm9udC1mYW1pbHk9InNhbnMtc2VyaWYiIGZvbnQtc2l6ZT0iMTMiIGxlbmd0aEFkanVzdD0ic3BhY2luZyIgdGV4dExlbmd0aD0iNyIgeD0iNDA5LjYwMzkiIHk9IjI3MTMuMjY3NCI+MTwvdGV4dD48L2c+PCEtLXJldmVyc2UgbGluayBFeGFtIHRvIFJlc3VsdC0tPjxnIGlkPSJsaW5rX0V4YW1fUmVzdWx0Ij48cGF0aCBjb2RlTGluZT0iMjY0IiBkPSJNMTE1LjY3LDIzNjEuMTEgQzExNS42NywyNDQ2LjU0IDExNS42NywyNTQyIDExNS42NywyNTQyIEMxMTUuNjcsMjU0MiAxMzEuMjUsMjU0MiAxNTEuMzQsMjU0MiAiIGZpbGw9Im5vbmUiIGlkPSJFeGFtLWJhY2t0by1SZXN1bHQiIHN0eWxlPSJzdHJva2U6IzE4MTgxODtzdHJva2Utd2lkdGg6MS4wOyIvPjxwb2x5Z29uIGZpbGw9Im5vbmUiIHBvaW50cz0iMTE1LjY3LDIzNDkuMTEsMTExLjY3LDIzNTUuMTEsMTE1LjY3LDIzNjEuMTEsMTE5LjY3LDIzNTUuMTEsMTE1LjY3LDIzNDkuMTEiIHN0eWxlPSJzdHJva2U6IzE4MTgxODtzdHJva2Utd2lkdGg6MS4wOyIvPjx0ZXh0IGZpbGw9IiMwMDAwMDAiIGZvbnQtZmFtaWx5PSJzYW5zLXNlcmlmIiBmb250LXNpemU9IjEzIiBsZW5ndGhBZGp1c3Q9InNwYWNpbmciIHRleHRMZW5ndGg9IjIxIiB4PSI5My42NyIgeT0iMjQ2MS42NzkxIj5IYXM8L3RleHQ+PHRleHQgZmlsbD0iIzAwMDAwMCIgZm9udC1mYW1pbHk9InNhbnMtc2VyaWYiIGZvbnQtc2l6ZT0iMTMiIGxlbmd0aEFkanVzdD0ic3BhY2luZyIgdGV4dExlbmd0aD0iNyIgeD0iMTA5LjY2NjMiIHk9IjIzNjkuMTQ0NyI+MTwvdGV4dD48dGV4dCBmaWxsPSIjMDAwMDAwIiBmb250LWZhbWlseT0ic2Fucy1zZXJpZiIgZm9udC1zaXplPSIxMyIgbGVuZ3RoQWRqdXN0PSJzcGFjaW5nIiB0ZXh0TGVuZ3RoPSIyNSIgeD0iMTE4LjM1ODUiIHk9IjI1NDAuODE0NCI+MC4uKjwvdGV4dD48L2c+PCEtLXJldmVyc2UgbGluayBFeGFtIHRvIFN1YmplY3QtLT48ZyBpZD0ibGlua19FeGFtX1N1YmplY3QiPjxwYXRoIGNvZGVMaW5lPSIyNjUiIGQ9Ik04MC4zMywyMzYxLjE2IEM4MC4zMywyNTI3LjEyIDgwLjMzLDI4MjMgODAuMzMsMjgyMyBDODAuMzMsMjgyMyAxOTgsMjgyMyAyNzQuMzEsMjgyMyAiIGZpbGw9Im5vbmUiIGlkPSJFeGFtLWJhY2t0by1TdWJqZWN0IiBzdHlsZT0ic3Ryb2tlOiMxODE4MTg7c3Ryb2tlLXdpZHRoOjEuMDsiLz48cG9seWdvbiBmaWxsPSIjMTgxODE4IiBwb2ludHM9IjgwLjMzLDIzNDkuMTYsNzYuMzMsMjM1NS4xNiw4MC4zMywyMzYxLjE2LDg0LjMzLDIzNTUuMTYsODAuMzMsMjM0OS4xNiIgc3R5bGU9InN0cm9rZTojMTgxODE4O3N0cm9rZS13aWR0aDoxLjA7Ii8+PHRleHQgZmlsbD0iIzAwMDAwMCIgZm9udC1mYW1pbHk9InNhbnMtc2VyaWYiIGZvbnQtc2l6ZT0iMTMiIGxlbmd0aEFkanVzdD0ic3BhY2luZyIgdGV4dExlbmd0aD0iNyIgeD0iNzEuODQxNSIgeT0iMjM2OS4xOTgzIj4xPC90ZXh0Pjx0ZXh0IGZpbGw9IiMwMDAwMDAiIGZvbnQtZmFtaWx5PSJzYW5zLXNlcmlmIiBmb250LXNpemU9IjEzIiBsZW5ndGhBZGp1c3Q9InNwYWNpbmciIHRleHRMZW5ndGg9IjciIHg9IjI1OS41NDEyIiB5PSIyODIxLjYwMTIiPjE8L3RleHQ+PC9nPjwhLS1yZXZlcnNlIGxpbmsgUmVzdWx0IHRvIFN1YmplY3QtLT48ZyBpZD0ibGlua19SZXN1bHRfU3ViamVjdCI+PHBhdGggY29kZUxpbmU9IjI2NiIgZD0iTTMwMC41LDI2NDkuNTMgQzMwMC41LDI2NzUuOTQgMzAwLjUsMjY5Mi43MiAzMDAuNSwyNzE5LjU2ICIgZmlsbD0ibm9uZSIgaWQ9IlJlc3VsdC1iYWNrdG8tU3ViamVjdCIgc3R5bGU9InN0cm9rZTojMTgxODE4O3N0cm9rZS13aWR0aDoxLjA7Ii8+PHBvbHlnb24gZmlsbD0iIzE4MTgxOCIgcG9pbnRzPSIzMDAuNSwyNjM3LjUzLDI5Ni41LDI2NDMuNTMsMzAwLjUsMjY0OS41MywzMDQuNSwyNjQzLjUzLDMwMC41LDI2MzcuNTMiIHN0eWxlPSJzdHJva2U6IzE4MTgxODtzdHJva2Utd2lkdGg6MS4wOyIvPjx0ZXh0IGZpbGw9IiMwMDAwMDAiIGZvbnQtZmFtaWx5PSJzYW5zLXNlcmlmIiBmb250LXNpemU9IjEzIiBsZW5ndGhBZGp1c3Q9InNwYWNpbmciIHRleHRMZW5ndGg9IjciIHg9IjI5Ny45NDA2IiB5PSIyNjU3LjY3MjMiPjE8L3RleHQ+PHRleHQgZmlsbD0iIzAwMDAwMCIgZm9udC1mYW1pbHk9InNhbnMtc2VyaWYiIGZvbnQtc2l6ZT0iMTMiIGxlbmd0aEFkanVzdD0ic3BhY2luZyIgdGV4dExlbmd0aD0iNyIgeD0iMjkwLjM2MDkiIHk9IjI3MTAuNDc0Ij4xPC90ZXh0PjwvZz48IS0tbGluayBTY2hvb2xCdWRnZXQgdG8gUGF5bWVudC0tPjxnIGlkPSJsaW5rX1NjaG9vbEJ1ZGdldF9QYXltZW50Ij48cGF0aCBjb2RlTGluZT0iMjY3IiBkPSJNNDkxLjI5LDE5NDMgQzQzMS44LDE5NDMgMzQ5LjI1LDE5NDMgMzQ5LjI1LDE5NDMgQzM0OS4yNSwxOTQzIDM0OS4yNSwyMDQ4Ljc3IDM0OS4yNSwyMTM1LjMyICIgZmlsbD0ibm9uZSIgaWQ9IlNjaG9vbEJ1ZGdldC1QYXltZW50IiBzdHlsZT0ic3Ryb2tlOiMxODE4MTg7c3Ryb2tlLXdpZHRoOjEuMDsiLz48L2c+PCEtLWxpbmsgQWRtaW4gdG8gVXNlci0tPjxnIGlkPSJsaW5rX0FkbWluX1VzZXIiPjxwYXRoIGNvZGVMaW5lPSIyNjgiIGQ9Ik05NzMsMTgxNi43MSBDOTczLDE0MTcuOTMgOTczLDIwOCA5NzMsMjA4IEM5NzMsMjA4IDc4MS4xMSwyMDggNjY3LjkyLDIwOCAiIGZpbGw9Im5vbmUiIGlkPSJBZG1pbi1Vc2VyIiBzdHlsZT0ic3Ryb2tlOiMxODE4MTg7c3Ryb2tlLXdpZHRoOjEuMDsiLz48dGV4dCBmaWxsPSIjMDAwMDAwIiBmb250LWZhbWlseT0ic2Fucy1zZXJpZiIgZm9udC1zaXplPSIxMyIgbGVuZ3RoQWRqdXN0PSJzcGFjaW5nIiB0ZXh0TGVuZ3RoPSI0MiIgeD0iOTMwIiB5PSI4NTguMTA5MSI+TWFuYWdlPC90ZXh0Pjx0ZXh0IGZpbGw9IiMwMDAwMDAiIGZvbnQtZmFtaWx5PSJzYW5zLXNlcmlmIiBmb250LXNpemU9IjEzIiBsZW5ndGhBZGp1c3Q9InNwYWNpbmciIHRleHRMZW5ndGg9IjciIHg9Ijk2NS43NzU4IiB5PSIxODA3LjU2MSI+MTwvdGV4dD48dGV4dCBmaWxsPSIjMDAwMDAwIiBmb250LWZhbWlseT0ic2Fucy1zZXJpZiIgZm9udC1zaXplPSIxMyIgbGVuZ3RoQWRqdXN0PSJzcGFjaW5nIiB0ZXh0TGVuZ3RoPSIyNSIgeD0iNjc1LjM2NDQiIHk9IjIwNi44NjI5Ij4xLi4qPC90ZXh0PjwvZz48IS0tbGluayBWaWNlUHJpbmNpcGFsIHRvIFNjaG9vbEJ1ZGdldC0tPjxnIGlkPSJsaW5rX1ZpY2VQcmluY2lwYWxfU2Nob29sQnVkZ2V0Ij48cGF0aCBjb2RlTGluZT0iMjcwIiBkPSJNNTQyLDExOTEuMjggQzU0MiwxMzI4Ljc1IDU0MiwxNzA4LjYyIDU0MiwxODY5LjI1ICIgZmlsbD0ibm9uZSIgaWQ9IlZpY2VQcmluY2lwYWwtU2Nob29sQnVkZ2V0IiBzdHlsZT0ic3Ryb2tlOiMxODE4MTg7c3Ryb2tlLXdpZHRoOjEuMDsiLz48dGV4dCBmaWxsPSIjMDAwMDAwIiBmb250LWZhbWlseT0ic2Fucy1zZXJpZiIgZm9udC1zaXplPSIxMyIgbGVuZ3RoQWRqdXN0PSJzcGFjaW5nIiB0ZXh0TGVuZ3RoPSI0MiIgeD0iNDk5IiB5PSIxNTI4LjU1OTEiPk1hbmFnZTwvdGV4dD48dGV4dCBmaWxsPSIjMDAwMDAwIiBmb250LWZhbWlseT0ic2Fucy1zZXJpZiIgZm9udC1zaXplPSIxMyIgbGVuZ3RoQWRqdXN0PSJzcGFjaW5nIiB0ZXh0TGVuZ3RoPSI3IiB4PSI1MjUuOTI5NyIgeT0iMTIxMS4zMzI3Ij4xPC90ZXh0Pjx0ZXh0IGZpbGw9IiMwMDAwMDAiIGZvbnQtZmFtaWx5PSJzYW5zLXNlcmlmIiBmb250LXNpemU9IjEzIiBsZW5ndGhBZGp1c3Q9InNwYWNpbmciIHRleHRMZW5ndGg9IjI1IiB4PSI1MTQuNjQ4NCIgeT0iMTg1OS44NzMyIj4xLi4qPC90ZXh0PjwvZz48IS0tbGluayBTZWN0aW9uYWxIZWFkIHRvIFNlY3Rpb24tLT48ZyBpZD0ibGlua19TZWN0aW9uYWxIZWFkX1NlY3Rpb24iPjxwYXRoIGNvZGVMaW5lPSIyNzIiIGQ9Ik00ODAuNSw5NDAuMTMgQzQ4MC41LDk1OS4wMiA0ODAuNSw5NzkuNDMgNDgwLjUsOTk5Ljc1ICIgZmlsbD0ibm9uZSIgaWQ9IlNlY3Rpb25hbEhlYWQtU2VjdGlvbiIgc3R5bGU9InN0cm9rZTojMTgxODE4O3N0cm9rZS13aWR0aDoxLjA7Ii8+PHRleHQgZmlsbD0iIzAwMDAwMCIgZm9udC1mYW1pbHk9InNhbnMtc2VyaWYiIGZvbnQtc2l6ZT0iMTMiIGxlbmd0aEFkanVzdD0ic3BhY2luZyIgdGV4dExlbmd0aD0iNDIiIHg9IjQzNy41IiB5PSI5NjguMjI5MSI+TWFuYWdlPC90ZXh0Pjx0ZXh0IGZpbGw9IiMwMDAwMDAiIGZvbnQtZmFtaWx5PSJzYW5zLXNlcmlmIiBmb250LXNpemU9IjEzIiBsZW5ndGhBZGp1c3Q9InNwYWNpbmciIHRleHRMZW5ndGg9IjciIHg9IjQ2NC43MzQ0IiB5PSI5NjAuMDAyNSI+MTwvdGV4dD48dGV4dCBmaWxsPSIjMDAwMDAwIiBmb250LWZhbWlseT0ic2Fucy1zZXJpZiIgZm9udC1zaXplPSIxMyIgbGVuZ3RoQWRqdXN0PSJzcGFjaW5nIiB0ZXh0TGVuZ3RoPSI3IiB4PSI0NzguMjQwNiIgeT0iOTkwLjU2MDMiPjE8L3RleHQ+PC9nPjwhLS1saW5rIFRlYWNoZXIgdG8gQ2xhc3MtLT48ZyBpZD0ibGlua19UZWFjaGVyX0NsYXNzIj48cGF0aCBjb2RlTGluZT0iMjc0IiBkPSJNNDk1LjY1LDYxMCBDMzg4LjQxLDYxMCAyMjUsNjEwIDIyNSw2MTAgQzIyNSw2MTAgMjI1LDEwNjQuMjkgMjI1LDEzNDAuOSAiIGZpbGw9Im5vbmUiIGlkPSJUZWFjaGVyLUNsYXNzIiBzdHlsZT0ic3Ryb2tlOiMxODE4MTg7c3Ryb2tlLXdpZHRoOjEuMDsiLz48dGV4dCBmaWxsPSIjMDAwMDAwIiBmb250LWZhbWlseT0ic2Fucy1zZXJpZiIgZm9udC1zaXplPSIxMyIgbGVuZ3RoQWRqdXN0PSJzcGFjaW5nIiB0ZXh0TGVuZ3RoPSI0MiIgeD0iMTgyIiB5PSI4MzguNDA5MSI+TWFuYWdlPC90ZXh0Pjx0ZXh0IGZpbGw9IiMwMDAwMDAiIGZvbnQtZmFtaWx5PSJzYW5zLXNlcmlmIiBmb250LXNpemU9IjEzIiBsZW5ndGhBZGp1c3Q9InNwYWNpbmciIHRleHRMZW5ndGg9IjciIHg9IjQ4MS4wOTE2IiB5PSI2MTAuNzI4NyI+MTwvdGV4dD48dGV4dCBmaWxsPSIjMDAwMDAwIiBmb250LWZhbWlseT0ic2Fucy1zZXJpZiIgZm9udC1zaXplPSIxMyIgbGVuZ3RoQWRqdXN0PSJzcGFjaW5nIiB0ZXh0TGVuZ3RoPSIyNiIgeD0iMTk4LjI0MDYiIHk9IjEzMzEuMTYzNSI+MC4uMTwvdGV4dD48L2c+PCEtLWxpbmsgVGVhY2hlciB0byBTdWJqZWN0LS0+PGcgaWQ9ImxpbmtfVGVhY2hlcl9TdWJqZWN0Ij48cGF0aCBjb2RlTGluZT0iMjc1IiBkPSJNNjc4LjI4LDUyNyBDNzU3LjY1LDUyNyA4NjAsNTI3IDg2MCw1MjcgQzg2MCw1MjcgODYwLDI4MjMgODYwLDI4MjMgQzg2MCwyODIzIDU0MSwyODIzIDQwMS43NSwyODIzICIgZmlsbD0ibm9uZSIgaWQ9IlRlYWNoZXItU3ViamVjdCIgc3R5bGU9InN0cm9rZTojMTgxODE4O3N0cm9rZS13aWR0aDoxLjA7Ii8+PHRleHQgZmlsbD0iIzAwMDAwMCIgZm9udC1mYW1pbHk9InNhbnMtc2VyaWYiIGZvbnQtc2l6ZT0iMTMiIGxlbmd0aEFkanVzdD0ic3BhY2luZyIgdGV4dExlbmd0aD0iNDIiIHg9IjgxNyIgeT0iMTgxMS41NTkxIj5NYW5hZ2U8L3RleHQ+PHRleHQgZmlsbD0iIzAwMDAwMCIgZm9udC1mYW1pbHk9InNhbnMtc2VyaWYiIGZvbnQtc2l6ZT0iMTMiIGxlbmd0aEFkanVzdD0ic3BhY2luZyIgdGV4dExlbmd0aD0iNyIgeD0iNjg2LjEyOSIgeT0iNTIwLjkxMTciPjE8L3RleHQ+PHRleHQgZmlsbD0iIzAwMDAwMCIgZm9udC1mYW1pbHk9InNhbnMtc2VyaWYiIGZvbnQtc2l6ZT0iMTMiIGxlbmd0aEFkanVzdD0ic3BhY2luZyIgdGV4dExlbmd0aD0iMjUiIHg9IjQwOS42MTMzIiB5PSIyODIxLjY3NTUiPjEuLio8L3RleHQ+PC9nPjwhLS1saW5rIFRlYWNoZXIgdG8gQXNzZXNzbWVudC0tPjxnIGlkPSJsaW5rX1RlYWNoZXJfQXNzZXNzbWVudCI+PHBhdGggY29kZUxpbmU9IjI3NiIgZD0iTTY3OC4zNSw2NDUgQzcxMC44Myw2NDUgNzM5LjUsNjQ1IDczOS41LDY0NSBDNzM5LjUsNjQ1IDczOS41LDE3NTcuODkgNzM5LjUsMjEyNy45NSAiIGZpbGw9Im5vbmUiIGlkPSJUZWFjaGVyLUFzc2Vzc21lbnQiIHN0eWxlPSJzdHJva2U6IzE4MTgxODtzdHJva2Utd2lkdGg6MS4wOyIvPjx0ZXh0IGZpbGw9IiMwMDAwMDAiIGZvbnQtZmFtaWx5PSJzYW5zLXNlcmlmIiBmb250LXNpemU9IjEzIiBsZW5ndGhBZGp1c3Q9InNwYWNpbmciIHRleHRMZW5ndGg9IjQyIiB4PSI2OTYuNSIgeT0iMTM1NC4xODkxIj5NYW5hZ2U8L3RleHQ+PHRleHQgZmlsbD0iIzAwMDAwMCIgZm9udC1mYW1pbHk9InNhbnMtc2VyaWYiIGZvbnQtc2l6ZT0iMTMiIGxlbmd0aEFkanVzdD0ic3BhY2luZyIgdGV4dExlbmd0aD0iNyIgeD0iNjg1LjkwODQiIHk9IjY0OC41MTc4Ij4xPC90ZXh0Pjx0ZXh0IGZpbGw9IiMwMDAwMDAiIGZvbnQtZmFtaWx5PSJzYW5zLXNlcmlmIiBmb250LXNpemU9IjEzIiBsZW5ndGhBZGp1c3Q9InNwYWNpbmciIHRleHRMZW5ndGg9IjI1IiB4PSI3MTYuMzI4MSIgeT0iMjExOC41MjE1Ij4xLi4qPC90ZXh0PjwvZz48IS0tbGluayBUZWFjaGVyIHRvIFN1Ym1pc3Npb24tLT48ZyBpZD0ibGlua19UZWFjaGVyX1N1Ym1pc3Npb24iPjxwYXRoIGNvZGVMaW5lPSIyNzciIGQ9Ik02NzguMTcsNTg2IEM3MzguNzcsNTg2IDgwNy4yNSw1ODYgODA3LjI1LDU4NiBDODA3LjI1LDU4NiA4MDcuMjUsMjAwMC4zNSA4MDcuMjUsMjQyMy42OCAiIGZpbGw9Im5vbmUiIGlkPSJUZWFjaGVyLVN1Ym1pc3Npb24iIHN0eWxlPSJzdHJva2U6IzE4MTgxODtzdHJva2Utd2lkdGg6MS4wOyIvPjx0ZXh0IGZpbGw9IiMwMDAwMDAiIGZvbnQtZmFtaWx5PSJzYW5zLXNlcmlmIiBmb250LXNpemU9IjEzIiBsZW5ndGhBZGp1c3Q9InNwYWNpbmciIHRleHRMZW5ndGg9IjQyIiB4PSI3NjQuMjUiIHk9IjE0MzguNTg5MSI+TWFuYWdlPC90ZXh0Pjx0ZXh0IGZpbGw9IiMwMDAwMDAiIGZvbnQtZmFtaWx5PSJzYW5zLXNlcmlmIiBmb250LXNpemU9IjEzIiBsZW5ndGhBZGp1c3Q9InNwYWNpbmciIHRleHRMZW5ndGg9IjciIHg9IjY4Ni4wMDk5IiB5PSI1ODQuNzk3NyI+MTwvdGV4dD48dGV4dCBmaWxsPSIjMDAwMDAwIiBmb250LWZhbWlseT0ic2Fucy1zZXJpZiIgZm9udC1zaXplPSIxMyIgbGVuZ3RoQWRqdXN0PSJzcGFjaW5nIiB0ZXh0TGVuZ3RoPSIyNSIgeD0iNzg0LjM0MTgiIHk9IjI0MTQuMjMyNSI+MS4uKjwvdGV4dD48L2c+PCEtLWxpbmsgVGVhY2hlciB0byBFeGFtLS0+PGcgaWQ9ImxpbmtfVGVhY2hlcl9FeGFtIj48cGF0aCBjb2RlTGluZT0iMjc4IiBkPSJNNDk1LjkxLDUxNiBDMzQyLjcsNTE2IDUwLDUxNiA1MCw1MTYgQzUwLDUxNiA1MCwxNzcwLjUyIDUwLDIxNDIuOTYgIiBmaWxsPSJub25lIiBpZD0iVGVhY2hlci1FeGFtIiBzdHlsZT0ic3Ryb2tlOiMxODE4MTg7c3Ryb2tlLXdpZHRoOjEuMDsiLz48dGV4dCBmaWxsPSIjMDAwMDAwIiBmb250LWZhbWlseT0ic2Fucy1zZXJpZiIgZm9udC1zaXplPSIxMyIgbGVuZ3RoQWRqdXN0PSJzcGFjaW5nIiB0ZXh0TGVuZ3RoPSI0MiIgeD0iNyIgeT0iMTEwNC44MTkxIj5NYW5hZ2U8L3RleHQ+PHRleHQgZmlsbD0iIzAwMDAwMCIgZm9udC1mYW1pbHk9InNhbnMtc2VyaWYiIGZvbnQtc2l6ZT0iMTMiIGxlbmd0aEFkanVzdD0ic3BhY2luZyIgdGV4dExlbmd0aD0iNyIgeD0iNDgxLjA3NjgiIHk9IjUwOS4wMDA4Ij4xPC90ZXh0Pjx0ZXh0IGZpbGw9IiMwMDAwMDAiIGZvbnQtZmFtaWx5PSJzYW5zLXNlcmlmIiBmb250LXNpemU9IjEzIiBsZW5ndGhBZGp1c3Q9InNwYWNpbmciIHRleHRMZW5ndGg9IjI1IiB4PSIxOS45ODk4IiB5PSIyMTMzLjIyMzQiPjEuLio8L3RleHQ+PC9nPjwhLS1saW5rIFRlYWNoZXIgdG8gU3R1ZGVudC0tPjxnIGlkPSJsaW5rX1RlYWNoZXJfU3R1ZGVudCI+PHBhdGggY29kZUxpbmU9IjI3OSIgZD0iTTQ5NS44OSw1NjMgQzM1OS4zLDU2MyAxMTcuMzMsNTYzIDExNy4zMyw1NjMgQzExNy4zMyw1NjMgMTE3LjMzLDE1MDQuNTkgMTE3LjMzLDE4MzEuOTQgIiBmaWxsPSJub25lIiBpZD0iVGVhY2hlci1TdHVkZW50IiBzdHlsZT0ic3Ryb2tlOiMxODE4MTg7c3Ryb2tlLXdpZHRoOjEuMDsiLz48dGV4dCBmaWxsPSIjMDAwMDAwIiBmb250LWZhbWlseT0ic2Fucy1zZXJpZiIgZm9udC1zaXplPSIxMyIgbGVuZ3RoQWRqdXN0PSJzcGFjaW5nIiB0ZXh0TGVuZ3RoPSI0MiIgeD0iNzQuMzMiIHk9IjEwMDYuNDc5MSI+TWFuYWdlPC90ZXh0Pjx0ZXh0IGZpbGw9IiMwMDAwMDAiIGZvbnQtZmFtaWx5PSJzYW5zLXNlcmlmIiBmb250LXNpemU9IjEzIiBsZW5ndGhBZGp1c3Q9InNwYWNpbmciIHRleHRMZW5ndGg9IjciIHg9IjQ4MS4wNTUxIiB5PSI1NTkuODkzIj4xPC90ZXh0Pjx0ZXh0IGZpbGw9IiMwMDAwMDAiIGZvbnQtZmFtaWx5PSJzYW5zLXNlcmlmIiBmb250LXNpemU9IjEzIiBsZW5ndGhBZGp1c3Q9InNwYWNpbmciIHRleHRMZW5ndGg9IjI1IiB4PSI4OC43OTUxIiB5PSIxODIyLjMwOTQiPjEuLio8L3RleHQ+PC9nPjwhLS1saW5rIFN0dWRlbnQgdG8gUGF5bWVudC0tPjxnIGlkPSJsaW5rX1N0dWRlbnRfUGF5bWVudCI+PHBhdGggY29kZUxpbmU9IjI4MCIgZD0iTTI0MiwyMDQxIEMyNjYuMiwyMDQxIDI4NS43NSwyMDQxIDI4NS43NSwyMDQxIEMyODUuNzUsMjA0MSAyODUuNzUsMjA4Ni45OSAyODUuNzUsMjEzNS40ICIgZmlsbD0ibm9uZSIgaWQ9IlN0dWRlbnQtUGF5bWVudCIgc3R5bGU9InN0cm9rZTojMTgxODE4O3N0cm9rZS13aWR0aDoxLjA7Ii8+PHRleHQgZmlsbD0iIzAwMDAwMCIgZm9udC1mYW1pbHk9InNhbnMtc2VyaWYiIGZvbnQtc2l6ZT0iMTMiIGxlbmd0aEFkanVzdD0ic3BhY2luZyIgdGV4dExlbmd0aD0iMjgiIHg9IjI1Ni43NSIgeT0iMjA2NC42MTkxIj5NYWtlPC90ZXh0Pjx0ZXh0IGZpbGw9IiMwMDAwMDAiIGZvbnQtZmFtaWx5PSJzYW5zLXNlcmlmIiBmb250LXNpemU9IjEzIiBsZW5ndGhBZGp1c3Q9InNwYWNpbmciIHRleHRMZW5ndGg9IjciIHg9IjI1MC4xMjExIiB5PSIyMDQ4LjI0MzMiPjE8L3RleHQ+PHRleHQgZmlsbD0iIzAwMDAwMCIgZm9udC1mYW1pbHk9InNhbnMtc2VyaWYiIGZvbnQtc2l6ZT0iMTMiIGxlbmd0aEFkanVzdD0ic3BhY2luZyIgdGV4dExlbmd0aD0iMjUiIHg9IjI1Ny4wOTQxIiB5PSIyMTI1Ljc2NjQiPjAuLio8L3RleHQ+PC9nPjwhLS1saW5rIFN0dWRlbnQgdG8gU3ViamVjdC0tPjxnIGlkPSJsaW5rX1N0dWRlbnRfU3ViamVjdCI+PHBhdGggY29kZUxpbmU9IjI4MSIgZD0iTTI0Mi4yNCwyMDI4IEMzMDkuMjksMjAyOCAzODguNzUsMjAyOCAzODguNzUsMjAyOCBDMzg4Ljc1LDIwMjggMzg4Ljc1LDI1MDQuNzggMzg4Ljc1LDI3MTkuODggIiBmaWxsPSJub25lIiBpZD0iU3R1ZGVudC1TdWJqZWN0IiBzdHlsZT0ic3Ryb2tlOiMxODE4MTg7c3Ryb2tlLXdpZHRoOjEuMDsiLz48dGV4dCBmaWxsPSIjMDAwMDAwIiBmb250LWZhbWlseT0ic2Fucy1zZXJpZiIgZm9udC1zaXplPSIxMyIgbGVuZ3RoQWRqdXN0PSJzcGFjaW5nIiB0ZXh0TGVuZ3RoPSI0MiIgeD0iMzg5Ljc1IiB5PSIyMjk4Ljk3OTEiPkFjY2VzczwvdGV4dD48dGV4dCBmaWxsPSIjMDAwMDAwIiBmb250LWZhbWlseT0ic2Fucy1zZXJpZiIgZm9udC1zaXplPSIxMyIgbGVuZ3RoQWRqdXN0PSJzcGFjaW5nIiB0ZXh0TGVuZ3RoPSI3IiB4PSIyNTAuMDg1NyIgeT0iMjAzMy44Nzc1Ij4xPC90ZXh0Pjx0ZXh0IGZpbGw9IiMwMDAwMDAiIGZvbnQtZmFtaWx5PSJzYW5zLXNlcmlmIiBmb250LXNpemU9IjEzIiBsZW5ndGhBZGp1c3Q9InNwYWNpbmciIHRleHRMZW5ndGg9IjI1IiB4PSIzNjYuNzk4IiB5PSIyNzEwLjQ3NzYiPjEuLio8L3RleHQ+PC9nPjwhLS1saW5rIFN0dWRlbnQgdG8gRXhhbS0tPjxnIGlkPSJsaW5rX1N0dWRlbnRfRXhhbSI+PHBhdGggY29kZUxpbmU9IjI4MiIgZD0iTTEwNS41LDIwNTMuMzYgQzEwNS41LDIwODIuNTcgMTA1LjUsMjExMy45NiAxMDUuNSwyMTQyLjc1ICIgZmlsbD0ibm9uZSIgaWQ9IlN0dWRlbnQtRXhhbSIgc3R5bGU9InN0cm9rZTojMTgxODE4O3N0cm9rZS13aWR0aDoxLjA7Ii8+PHRleHQgZmlsbD0iIzAwMDAwMCIgZm9udC1mYW1pbHk9InNhbnMtc2VyaWYiIGZvbnQtc2l6ZT0iMTMiIGxlbmd0aEFkanVzdD0ic3BhY2luZyIgdGV4dExlbmd0aD0iMzQiIHg9IjcwLjUiIHk9IjIwOTYuMzQ5MSI+QXBwbHk8L3RleHQ+PHRleHQgZmlsbD0iIzAwMDAwMCIgZm9udC1mYW1pbHk9InNhbnMtc2VyaWYiIGZvbnQtc2l6ZT0iMTMiIGxlbmd0aEFkanVzdD0ic3BhY2luZyIgdGV4dExlbmd0aD0iNyIgeD0iOTUuMzYwOSIgeT0iMjA3My4yMDMyIj4xPC90ZXh0Pjx0ZXh0IGZpbGw9IiMwMDAwMDAiIGZvbnQtZmFtaWx5PSJzYW5zLXNlcmlmIiBmb250LXNpemU9IjEzIiBsZW5ndGhBZGp1c3Q9InNwYWNpbmciIHRleHRMZW5ndGg9IjI1IiB4PSI4MC4xMDE2IiB5PSIyMTMzLjMzNzIiPjEuLio8L3RleHQ+PC9nPjwhLS1yZXZlcnNlIGxpbmsgU3R1ZGVudCB0byBSZXN1bHQtLT48ZyBpZD0ibGlua19TdHVkZW50X1Jlc3VsdCI+PHBhdGggY29kZUxpbmU9IjI4MyIgZD0iTTE4MS42NywyMDY1LjE2IEMxODEuNjcsMjE3Ny45OSAxODEuNjcsMjMzOS4yNCAxODEuNjcsMjQ0Ni4zMiAiIGZpbGw9Im5vbmUiIGlkPSJTdHVkZW50LWJhY2t0by1SZXN1bHQiIHN0eWxlPSJzdHJva2U6IzE4MTgxODtzdHJva2Utd2lkdGg6MS4wOyIvPjxwb2x5Z29uIGZpbGw9Im5vbmUiIHBvaW50cz0iMTgxLjY3LDIwNTMuMTYsMTc3LjY3LDIwNTkuMTYsMTgxLjY3LDIwNjUuMTYsMTg1LjY3LDIwNTkuMTYsMTgxLjY3LDIwNTMuMTYiIHN0eWxlPSJzdHJva2U6IzE4MTgxODtzdHJva2Utd2lkdGg6MS4wOyIvPjx0ZXh0IGZpbGw9IiMwMDAwMDAiIGZvbnQtZmFtaWx5PSJzYW5zLXNlcmlmIiBmb250LXNpemU9IjEzIiBsZW5ndGhBZGp1c3Q9InNwYWNpbmciIHRleHRMZW5ndGg9IjIxIiB4PSIxNTkuNjciIHk9IjIyNDguMDI5MSI+SGFzPC90ZXh0Pjx0ZXh0IGZpbGw9IiMwMDAwMDAiIGZvbnQtZmFtaWx5PSJzYW5zLXNlcmlmIiBmb250LXNpemU9IjEzIiBsZW5ndGhBZGp1c3Q9InNwYWNpbmciIHRleHRMZW5ndGg9IjciIHg9IjE3Ni40MTA2IiB5PSIyMDcyLjk5MDQiPjE8L3RleHQ+PHRleHQgZmlsbD0iIzAwMDAwMCIgZm9udC1mYW1pbHk9InNhbnMtc2VyaWYiIGZvbnQtc2l6ZT0iMTMiIGxlbmd0aEFkanVzdD0ic3BhY2luZyIgdGV4dExlbmd0aD0iMjUiIHg9IjE1MC42NjkiIHk9IjI0MzYuODc0NiI+MC4uKjwvdGV4dD48L2c+PCEtLWxpbmsgU3R1ZGVudCB0byBBc3Nlc3NtZW50LS0+PGcgaWQ9ImxpbmtfU3R1ZGVudF9Bc3Nlc3NtZW50Ij48cGF0aCBjb2RlTGluZT0iMjg0IiBkPSJNMjExLjgzLDIwNTMuMDEgQzIxMS44MywyMDk0LjU5IDIxMS44MywyMTMyIDIxMS44MywyMTMyIEMyMTEuODMsMjEzMiA0ODkuNSwyMTMyIDYyNi40NCwyMTMyICIgZmlsbD0ibm9uZSIgaWQ9IlN0dWRlbnQtQXNzZXNzbWVudCIgc3R5bGU9InN0cm9rZTojMTgxODE4O3N0cm9rZS13aWR0aDoxLjA7Ii8+PHRleHQgZmlsbD0iIzAwMDAwMCIgZm9udC1mYW1pbHk9InNhbnMtc2VyaWYiIGZvbnQtc2l6ZT0iMTMiIGxlbmd0aEFkanVzdD0ic3BhY2luZyIgdGV4dExlbmd0aD0iMzkiIHg9IjMzOS42NCIgeT0iMjEzMC4yODkxIj5TdWJtaXQ8L3RleHQ+PHRleHQgZmlsbD0iIzAwMDAwMCIgZm9udC1mYW1pbHk9InNhbnMtc2VyaWYiIGZvbnQtc2l6ZT0iMTMiIGxlbmd0aEFkanVzdD0ic3BhY2luZyIgdGV4dExlbmd0aD0iNyIgeD0iMjA4LjY4MTkiIHk9IjIwNzMuMTk4MiI+MTwvdGV4dD48dGV4dCBmaWxsPSIjMDAwMDAwIiBmb250LWZhbWlseT0ic2Fucy1zZXJpZiIgZm9udC1zaXplPSIxMyIgbGVuZ3RoQWRqdXN0PSJzcGFjaW5nIiB0ZXh0TGVuZ3RoPSIyNSIgeD0iNTkzLjQxNDIiIHk9IjIxMjAuMjMyNyI+MC4uKjwvdGV4dD48L2c+PCEtLVNSQz1bWkxURFJ6bXUzQnRGaHAzSW9zdU5BUGZoaVBTYVJUNDBKSlRlaWhxaDVaREhPcms2OUFWRFZscHRiS05nV3g4Y3NTbDBVZGdZbzRVQXFqVzdEU3QyWUI3eGgyUG1KcERxc2hYeGxSRGZlWC00alFWRTZOTXhFQlplek5Jal9lQmt4VXZVSVVYd1BWZTFUaGwwd2x3cU9CZ19UcnR0Z2JseXZ1c3RibU9OeHpGZDk0UjRQeF9lWHBPbzM2MEtRV1hWVHlmT3pvTUlsRUt5azVrNjhHc2FTRjM3dFBkbzdqRXdRR3pjRGNmb1FRLWxDRms4cWwycHRsbGx0eGY3MUp6TVJ0X3ZER254MHp2TTBJb3B2ODI0MEhXR0JVMDYxRXZYMGFDQnNLSGEtX3E5MFFiU1hLbUVaNVNROVljYzdXWExxdnFzT3g3bmVGVGdvanp3TVZWdUR3UldzWXRJNm1mUEVFdWlaZUJzUU5HRGxMRHdBZzZ6NEg5QXU3bXJMVzk5SHVvNWpjN29TR21MdjFZQW9CNzJNYkZBclhuZ2Frc2F3NnowekZVZjFhREt0eUltT0JhdWRBSDJmRDdyU2xsVHdzNUJCMFFWSUtjbjE1THdxQ1BDM3V3WDdYbjNGSlhNTTZsZ3FQZjNGUkFUTjB0ZWsxVy1XUDJuOWlocWJfRHJZaWl2ZGtaNjNBTXhDS0Q5UnluaVRjYU5tNDQ2Yks1YkVHTl9KVkxtdlBqMWhzT25LNGF5YmJaZ0ptbWpFV1BrbUVvNGhMenJldlo0N2d4eFV3czdpcU5rV1BMWGxVa3lzTjQtazVrdktwOXVBYVNyS1Z4NC1hcWRFZG9KS0hlYldwSjZaZFVDT1p6UDEtRHh1U0lqaURYV1phQ1pRYXg0ZGNLQk9aYVVqTEh0Sm9qbzFNUEtybGVpczY4ajZodEthdEJRNDZ1M1RZUndYc0tra0htbk9GcUl1NjJnWHMwMm14SURPZC1mcDRrYTQ4a0dBMVNEZ1NWTzRnRHBuaDJZWlIyd1Jmc1JyZWJmZFBMTWJSVkZua1FnVUc3ZGpuMDNhdmdYMlBBTVZSZURtWFM5YTA3QVNHUU9SMDRmYjB4WmdCREo4em84c203Z295MklYcUJBMlo0bXdhVk9xaXVCTG5ZckNIN2ZsRlNNejZQM1p4eG9iYndYckRHaFQ4cWk2Nk9NSW1JamJHWFFBZjZPel9DaVFNc19aVkFDNXIza01VOWZwMC03NktTTmlYb2JIYUZaelVYWmVuZHJDYzVvOVRaVWczYVRGUUJ3cmlBTU5lOV9QUUJuVlo1Y1ZQS3V1UFB5VmVaN3JCZlk2RWg1Q0xHaU94YXQ1OXNRR2xIakxlX2U1Rm9TT1JCdUJOc1ZNQnQ3c2pORTVtN1BveXdiWmZ6ek9uMndqaHFORmxwcTNzaFE3T0VkZngwXzFyN1JNYTBQYlBFQjRHYVRWSGdOQ0pjcTZrUUxqSUJDY205MGJHWDhwZHE1a21vRWtxVUZsb19Ib3I2TzFuR2NsblpIRjJLT3RLNUpwMXk2dUg4NmVLeUM0bEN5Rjd0S19nZEpRcnlZaVZfYkl6NVFpQk9lTWRCUUFKVXFqSEpFaFFUUVZiRzNNMThMS2NiTWNjUnBQSTBSNTZGUG0xWkYxV3dvUkwyeHQ4dy0zdy1fdUhPYmMxdVA5UG1CRWc0eVVGX19wRi0xUzBWMmpNYkxZWmYzUXlpd2E2TmdwQk0zVEF0TENEcmlES29OTW1zN0ZKUWV6S3RpT0VKaExIa2xVSG9iMmdOblVJNjN6ekJ0bDJranVlTHFoblRac3NveTZOMzhCbU02YUhoaHNiZ0EwYWl3NTVXSVdKMFZMbFpOX0ZpX255Vm5wcmsxbkFpc19oNTE2ZGxFeTNULThCME53dXdfV21DWEpyT0p1UTZ2WXBReGV2RVp4aE03WnF4VWw3YnpiRnZVbFVpLTJOazhYMC03UG9hblhMa0lwZ0pHQjk2MTljaVp6NHlOQUtLcEk3UlVuaXRZSU1iSXFNSG9RWFZzaE1uR1J5SnJZTDJsOTVQaFlqcV9RbUJtSWpkWG10dmJ2aTEyemp6cmItN3E1bWRZQjl4TEhFU21OeUFTLTd5aE02c2I5SG5FSW5CX0hNUExKS0lFR0FIdnhLem9GSHFXckhOckJBcjhfU2k2U3pLeW93R3dWVHZRZ2pNZTJtNTVnOXVNdHMwaHhNNUJnYUN6eE5pVnBHNFFrTk13TmdBQ1NnWWlzb3Vubk84ZXhaeTBdLS0+PC9nPjwvc3ZnPg==;" vertex="1" parent="1">
            <mxGeometry x="-1168" y="-1651" width="1072" height="2932" as="geometry" />
          </mxCell>
        </UserObject>
      </root>
    </mxGraphModel>
  </diagram>
</mxfile>
